<svg width="31" height="30" viewBox="0 0 31 30" xmlns="http://www.w3.org/2000/svg"><path d="M2.10371 7.33934c1.65953-2.79372 4.18138-4.973 7.18618-6.20998C12.2947-.107621 15.6199-.335404 18.7653.480278c3.1454.815682 5.9409 2.630722 7.9659 5.172042 2.025 2.54133 3.17 5.67148 3.2627 8.91968.0927 3.2481-.8718 6.4385-2.7485 9.0912-1.8768 2.6527-4.5641 4.6243-7.6579 5.6181-3.0937.9938-6.4265.9561-9.497-.1075-3.07049-1.0635-5.71256-3.0954-7.52876-5.7899l1.66423-1.1218c1.57319 2.334 3.86176 4.094 6.52143 5.0153 2.6596.9212 5.5465.9539 8.2263.093 2.6798-.8608 5.0076-2.5685 6.6332-4.8663 1.6256-2.2978 2.4611-5.0613 2.3808-7.8749-.0803-2.8135-1.0721-5.52486-2.8261-7.72616-1.7541-2.2013-4.1755-3.77349-6.9001-4.48003-2.7245-.70655-5.6048-.50924-8.2076.56223-2.60276 1.07148-4.78719 2.95917-6.22468 5.3791l-1.72551-1.025z" fill="currentColor"/><path d="M15.3536 15.3536c.1952-.1953.1952-.5119 0-.7072l-3.182-3.1819c-.1953-.1953-.5119-.1953-.7071 0-.1953.1952-.1953.5118 0 .7071L14.2929 15l-2.8284 2.8284c-.1953.1953-.1953.5119 0 .7071.1952.1953.5118.1953.7071 0l3.182-3.1819zM0 15.5h15v-1H0v1z" fill="#1467FF"/></svg>
