<svg width="20" height="20" fill="none" xmlns="http://www.w3.org/2000/svg"><path d="M1.40247 4.8929C2.50882 3.03041 4.19006 1.57756 6.19326.752906c2.0032-.8246535 4.22004-.976509 6.31694-.432721 2.097.543789 3.9606 1.753815 5.3106 3.448035s2.1133 3.781 2.1751 5.94642c.0618 2.16546-.5812 4.29236-1.8323 6.06086-1.2512 1.7684-3.0428 3.0828-5.1053 3.7453-2.0625.6626-4.28433.6374-6.33131-.0716-2.04698-.709-3.80836-2.0636-5.01917-3.8599l1.10949-.7479c1.0488 1.556 2.57451 2.7293 4.34761 3.3435 1.77309.6142 3.69768.6359 5.48418.0621 1.7866-.5739 3.3385-1.7124 4.4222-3.2443 1.0837-1.5318 1.6407-3.3742 1.5872-5.24988-.0536-1.87568-.7148-3.68326-1.8841-5.15079-1.1694-1.46754-2.7837-2.51566-4.6-2.98669-1.8164-.47103-3.73663-.33949-5.4718.37482-1.73517.71432-3.19146 1.97278-4.14978 3.58606L1.40247 4.8929z" fill="#BBD3FF"/><path d="M10.3536 10.3536c.1952-.1953.1952-.51189 0-.70715L7.17157 6.46447c-.19526-.19527-.51184-.19527-.7071 0-.19527.19526-.19527.51184 0 .7071L9.29289 10l-2.82842 2.8284c-.19527.1953-.19527.5119 0 .7071.19526.1953.51184.1953.7071 0l3.18203-3.1819zM0 10.5h10v-1H0v1z" fill="#fff"/></svg>
