<svg width="30" height="30" viewBox="0 0 30 30" fill="none" xmlns="http://www.w3.org/2000/svg">
<g clip-path="url(#clip0)">
<path d="M15.0053 0.00292985C9.00344 0.00205503 3.57907 3.57962 1.21675 9.09703L1.02978 9.15902L1.10227 9.37648C-2.00808 17.0478 1.68921 25.788 9.36049 28.8983C11.1522 29.6248 13.0675 29.9977 15.0009 29.9967C23.2834 29.9979 29.9987 23.2846 30 15.0021C30.0012 6.71953 23.2879 0.0041171 15.0053 0.00292985ZM26.7687 22.561L25.9986 21.7914V19.9988C25.9995 19.9214 25.9823 19.8449 25.9486 19.7753L23.999 15.8816V14C23.999 13.8329 23.9156 13.6768 23.7765 13.5841L22.2769 12.5843C22.1593 12.5058 22.014 12.4808 21.8769 12.5153L20.0403 12.9742L16.9555 11.6505L16.5311 8.67712L17.7073 7.50137H20.2323L21.0821 8.7786C21.1588 8.89345 21.2798 8.9715 21.416 8.99406L24.4154 9.49395C24.4958 9.50745 24.5781 9.50089 24.6554 9.47496L27.4178 8.55415C29.7347 13.0004 29.4869 18.3481 26.7687 22.561ZM24.7069 4.9289L23.894 5.47079L21.628 5.01739L20.1578 4.52799C20.0678 4.49743 19.971 4.49356 19.8789 4.51699L18.0202 4.98139L17.2054 4.70995L17.8093 3.5022H19.4999C19.5775 3.50226 19.654 3.48433 19.7234 3.44971L21.453 2.58489C22.6442 3.20664 23.7399 3.99597 24.7069 4.9289ZM9.52551 2.11899L10.7253 2.91882C10.7843 2.95806 10.8509 2.98431 10.9207 2.99581L13.3432 3.39972L13.1068 4.10708L11.8445 4.52849C11.7315 4.5661 11.6356 4.64284 11.5741 4.74494L10.1384 7.13744L7.83237 8.52115L4.43308 9.00655C4.18669 9.04136 4.00348 9.25213 4.00317 9.50095V11.0006C4.00317 11.1332 4.0559 11.2603 4.14963 11.3541L5.00296 12.2074V13.0662L2.92339 11.6795L2.16905 9.41647C3.60425 6.13715 6.23476 3.5277 9.52551 2.11899ZM8.10231 18.5091L5.84278 18.0567L5.00296 16.3815V15.2068L6.86557 13.3441L7.55492 14.7234C7.63959 14.8928 7.81287 14.9999 8.00233 14.9998H11.2187L12.5729 17.2568C12.6632 17.4072 12.8258 17.4992 13.0013 17.4993H14.391L14.0411 19.2524L12.1485 21.145C12.0546 21.2387 12.0017 21.3658 12.0015 21.4985V22.7482L10.2019 24.0979C10.076 24.1923 10.0019 24.3405 10.0019 24.4978V26.3035L9.38004 26.0975L8.50223 23.902V18.999C8.50229 18.7614 8.33508 18.5566 8.10231 18.5091ZM6.59962 26.1938C1.88629 22.6577 -0.106979 16.548 1.61416 10.9127L2.02958 12.1584C2.06457 12.2638 2.13368 12.3546 2.22604 12.4163L4.71802 14.0775L4.14963 14.6464C4.0559 14.7401 4.00317 14.8672 4.00317 14.9998V16.4995C4.0031 16.577 4.02104 16.6535 4.05565 16.7229L5.05545 18.7225C5.12468 18.8606 5.25384 18.959 5.40537 18.989L7.50494 19.4084V23.9979C7.50487 24.0614 7.51693 24.1244 7.54043 24.1834L8.54022 26.6829C8.59496 26.8194 8.70706 26.9249 8.84666 26.9713L10.3463 27.4712C10.3965 27.4882 10.4489 27.497 10.5018 27.4972C10.7779 27.4972 11.0017 27.2734 11.0017 26.9973V24.7478L12.8013 23.3981C12.9272 23.3036 13.0013 23.1555 13.0013 22.9981V21.7054L14.8544 19.8523C14.9241 19.7825 14.9716 19.6936 14.9909 19.5968L15.4908 17.0974C15.5449 16.8266 15.3693 16.5633 15.0985 16.5092C15.0664 16.5027 15.0337 16.4995 15.0009 16.4995H13.2842L11.93 14.2425C11.8397 14.0921 11.6771 14.0001 11.5016 14H8.31127L7.45245 12.2769C7.38052 12.133 7.2438 12.0325 7.08502 12.0069C6.92631 11.9795 6.76428 12.0319 6.65161 12.1469L6.00275 12.7933V12.0004C6.00275 11.8678 5.95001 11.7407 5.85628 11.647L5.00296 10.7937V9.93436L8.07332 9.49595C8.13924 9.48639 8.20267 9.46377 8.25978 9.42947L10.7593 7.92978C10.8294 7.88766 10.8881 7.82892 10.9302 7.75881L12.3349 5.4178L13.6592 4.97589C13.8087 4.92684 13.926 4.80955 13.9751 4.65996L14.475 3.16027C14.5616 2.89814 14.4193 2.61539 14.1572 2.52878C14.133 2.52078 14.1082 2.51466 14.0831 2.51041L11.1897 2.02801L10.6813 1.68908C13.8271 0.665167 17.2342 0.791891 20.2953 2.0465L19.382 2.50241H17.5004C17.31 2.50135 17.1356 2.60857 17.0504 2.77885L16.0507 4.77843C15.9275 5.02551 16.0279 5.3257 16.275 5.44886C16.296 5.45936 16.3178 5.46835 16.3401 5.47579L17.8398 5.97569C17.9298 6.00624 18.0266 6.01012 18.1187 5.98668L19.9773 5.52228L21.3391 5.97569C21.3585 5.98268 21.3786 5.98806 21.399 5.99168L23.8985 6.49158C24.0285 6.51807 24.1637 6.49145 24.2739 6.41759L25.4117 5.65875C25.9716 6.28243 26.4749 6.95479 26.9154 7.66783L24.4559 8.48766L21.793 8.04375L20.9131 6.72403C20.8209 6.58575 20.6659 6.50239 20.4997 6.50158H17.5004C17.3678 6.50158 17.2407 6.55431 17.1469 6.64805L15.6472 8.14773C15.5359 8.25902 15.4835 8.4163 15.5058 8.57214L16.0057 12.0714C16.0308 12.2444 16.1446 12.3917 16.3056 12.4598L19.8049 13.9595C19.9051 14.0029 20.017 14.0119 20.1228 13.985L21.9079 13.5386L22.9992 14.2675V15.9996C22.9983 16.077 23.0155 16.1534 23.0492 16.2231L24.9988 20.1167V21.9983C24.9988 22.1309 25.0515 22.258 25.1453 22.3518L26.191 23.3981C21.5531 29.5801 12.7816 30.8318 6.59962 26.1938Z" fill="currentColor"/>
</g>
<defs>
<clipPath id="clip0">
<rect width="30" height="30" fill="white"/>
</clipPath>
</defs>
</svg>
