<svg width="32" height="30" viewBox="0 0 32 30" xmlns="http://www.w3.org/2000/svg">
<path d="M3.10371 7.33934C4.76324 4.54562 7.28509 2.36634 10.2899 1.12936C13.2947 -0.107621 16.6199 -0.335404 19.7653 0.480278C22.9107 1.29596 25.7062 3.111 27.7312 5.65232C29.7562 8.19365 30.9012 11.3238 30.9939 14.572C31.0866 17.8201 30.1221 21.0105 28.2454 23.6632C26.3686 26.3159 23.6813 28.2875 20.5875 29.2813C17.4938 30.2751 14.161 30.2374 11.0905 29.1738C8.02001 28.1103 5.37794 26.0784 3.56174 23.3839L5.22597 22.2621C6.79916 24.5961 9.08773 26.3561 11.7474 27.2774C14.407 28.1986 17.2939 28.2313 19.9737 27.3704C22.6535 26.5096 24.9813 24.8019 26.6069 22.5041C28.2325 20.2063 29.068 17.4428 28.9877 14.6292C28.9074 11.8157 27.9156 9.10434 26.1616 6.90304C24.4075 4.70174 21.9861 3.12955 19.2615 2.42301C16.537 1.71646 13.6567 1.91377 11.0539 2.98524C8.45114 4.05672 6.26671 5.94441 4.82922 8.36434L3.10371 7.33934Z" fill="currentColor"/><path d="M0.646445 15.3536C0.451183 15.1583 0.451183 14.8417 0.646445 14.6464L3.82843 11.4645C4.02369 11.2692 4.34027 11.2692 4.53553 11.4645C4.73079 11.6597 4.73079 11.9763 4.53553 12.1716L1.70711 15L4.53553 17.8284C4.73079 18.0237 4.73079 18.3403 4.53553 18.5355C4.34027 18.7308 4.02369 18.7308 3.82843 18.5355L0.646445 15.3536ZM16 15.5L0.999999 15.5V14.5L16 14.5V15.5Z" fill="#1467FF"/>
</svg>
