<svg width="48" height="48" fill="none" xmlns="http://www.w3.org/2000/svg"><g filter="url(#filter0_d)"><circle cx="24" cy="14" r="9.5" stroke="#282828"/></g><path d="M22.8411 15.5467h1.8534v-.32c0-.44.16-.6267.6533-.8934 1.04-.5466 1.84-1.0533 1.84-2.3866 0-1.7734-1.4133-2.77336-3.2533-2.77336-1.8934 0-3.3467 1.07996-3.4267 3.17336h1.92c.08-1.1334.6933-1.4 1.4267-1.4 1 0 1.4133.4666 1.4133 1.0666 0 .5067-.3067.6934-1.04 1.08-1 .5334-1.3867.7867-1.3867 1.76v.6934zm.92 3.28c.7067 0 1.2267-.4534 1.2267-1.1334 0-.68-.52-1.1333-1.2267-1.1333-.6933 0-1.2133.4533-1.2133 1.1333 0 .68.52 1.1334 1.2133 1.1334z" fill="#282828"/><defs><filter id="filter0_d" x="0" y="0" width="48" height="48" filterUnits="userSpaceOnUse" color-interpolation-filters="sRGB"><feFlood flood-opacity="0" result="BackgroundImageFix"/><feColorMatrix in="SourceAlpha" values="0 0 0 0 0 0 0 0 0 0 0 0 0 0 0 0 0 0 127 0"/><feOffset dy="10"/><feGaussianBlur stdDeviation="7"/><feColorMatrix values="0 0 0 0 0 0 0 0 0 0 0 0 0 0 0 0 0 0 0.11 0"/><feBlend in2="BackgroundImageFix" result="effect1_dropShadow"/><feBlend in="SourceGraphic" in2="effect1_dropShadow" result="shape"/></filter></defs></svg>
