<svg width="20" height="20" viewBox="0 0 20 20" fill="none" xmlns="http://www.w3.org/2000/svg"><circle cx="10" cy="10" r="9.5" stroke="currentColor" fill="none"/><path d="M8.84115 11.5467h1.85335v-.32c0-.44.16-.6267.6533-.8934 1.04-.54663 1.84-1.05329 1.84-2.38663 0-1.77333-1.4133-2.77333-3.25332-2.77333-1.89333 0-3.34667 1.08-3.42667 3.17333h1.92c.08-1.13333.69334-1.4 1.42667-1.4 1.00002 0 1.41332.46667 1.41332 1.06667 0 .50667-.3067.69333-1.04 1.08-.99999.53333-1.38665.78667-1.38665 1.75996v.6934zm.92 3.28c.70665 0 1.22665-.4534 1.22665-1.1334 0-.68-.52-1.1333-1.22665-1.1333-.69334 0-1.21334.4533-1.21334 1.1333 0 .68.52 1.1334 1.21334 1.1334z" fill="currentColor"/></svg>
