<svg width="66" height="66" fill="none" xmlns="http://www.w3.org/2000/svg"><g filter="url(#filter0_d)"><circle cx="33" cy="19" r="19" fill="#7AACFF"/><circle cx="33" cy="19" r="14" fill="#1467FF"/><circle cx="33" cy="19" r="9" fill="#fff"/></g><path d="M37.7442 14.7168L30.949 20.151l-2.5651-3.248c-.136-.1705-.3289-.2758-.5365-.2929-.2076-.0171-.413.0554-.5713.2016-.1583.1462-.2567.3542-.2735.5786-.0169.2244.0491.4468.1836.6187l3.0418 3.8512c.1294.1639.3115.2686.5096.2931.198.0244.3972-.0332.5575-.1614l7.3856-5.9063c.1679-.1342.2797-.3352.3106-.5585.0309-.2234-.0214-.4509-.1456-.6325-.1242-.1816-.31-.3024-.5166-.3359-.2066-.0334-.417.0232-.5849.1575v.0006z" fill="#1467FF"/><defs><filter id="filter0_d" x="0" y="0" width="66" height="66" filterUnits="userSpaceOnUse" color-interpolation-filters="sRGB"><feFlood flood-opacity="0" result="BackgroundImageFix"/><feColorMatrix in="SourceAlpha" values="0 0 0 0 0 0 0 0 0 0 0 0 0 0 0 0 0 0 127 0"/><feOffset dy="14"/><feGaussianBlur stdDeviation="7"/><feColorMatrix values="0 0 0 0 0.080303 0 0 0 0 0.402479 0 0 0 0 1 0 0 0 0.28 0"/><feBlend in2="BackgroundImageFix" result="effect1_dropShadow"/><feBlend in="SourceGraphic" in2="effect1_dropShadow" result="shape"/></filter></defs></svg>
