<svg width="12" height="9" viewBox="0 0 12 9" fill="none" xmlns="http://www.w3.org/2000/svg">
<path d="M10.7442 0.716758L3.94897 6.151L1.38385 2.903C1.24787 2.73254 1.05499 2.62724 0.847405 2.61012C0.639817 2.59301 0.434406 2.66547 0.276092 2.81167C0.117779 2.95787 0.0194412 3.1659 0.00258682 3.39028C-0.0142675 3.61466 0.0517316 3.83713 0.186151 4.00903L3.22799 7.86022C3.35743 8.02412 3.53952 8.12884 3.73756 8.15329C3.93559 8.17773 4.13483 8.12007 4.29509 7.99193L11.6807 2.08564C11.8486 1.95136 11.9604 1.75043 11.9913 1.52706C12.0222 1.3037 11.9699 1.07619 11.8457 0.894591C11.7215 0.712991 11.5357 0.592172 11.3291 0.558715C11.1225 0.525258 10.9121 0.581906 10.7442 0.716191V0.716758Z" fill="#1467FF"/>
</svg>
