<svg width="30" height="30" viewBox="0 0 30 30" fill="none" xmlns="http://www.w3.org/2000/svg">
<g clip-path="url(#clip0)">
<path d="M14.99 29.9999C14.8912 29.9999 14.7912 29.9761 14.7013 29.9286L0.33625 22.4286C0.13 22.3211 0 22.1074 0 21.8749V7.81237C0 7.59612 0.1125 7.39487 0.29625 7.28112C0.48 7.16737 0.71125 7.15737 0.90375 7.25362L15.2688 14.4411C15.48 14.5474 15.6138 14.7636 15.6138 14.9999V29.3749C15.6138 29.5936 15.5 29.7961 15.3125 29.9099C15.215 29.9699 15.1025 29.9999 14.99 29.9999ZM1.25 21.4961L14.365 28.3436V15.3861L1.25 8.82362V21.4961Z" fill="#1467FF"/>
<path d="M15.0117 29.9998C14.8992 29.9998 14.7867 29.9698 14.688 29.9098C14.5017 29.796 14.3867 29.5935 14.3867 29.3748V14.9998C14.3867 14.7636 14.5205 14.5473 14.7317 14.4411L29.0967 7.25357C29.288 7.15607 29.5205 7.16607 29.7042 7.28107C29.8892 7.39482 30.0017 7.59607 30.0017 7.81232V21.8748C30.0017 22.1073 29.8717 22.3211 29.6655 22.4286L15.3005 29.9285C15.2105 29.976 15.1105 29.9998 15.0117 29.9998ZM15.6367 15.3861V28.3435L28.7517 21.4961V8.82357L15.6367 15.3861ZM29.3767 21.8748H29.3892H29.3767Z" fill="#1467FF"/>
<path d="M0.626299 8.43736C0.396299 8.43736 0.176299 8.31111 0.0662991 8.09236C-0.0887009 7.78361 0.0375491 7.40861 0.346299 7.25361L14.7313 0.0661133C14.9075 -0.0213867 15.115 -0.0213867 15.29 0.0661133L29.655 7.25361C29.9638 7.40861 30.0888 7.78361 29.9351 8.09236C29.7801 8.40111 29.4063 8.52486 29.0963 8.37236L15.0113 1.32361L0.906299 8.37111C0.816299 8.41611 0.721299 8.43736 0.626299 8.43736Z" fill="#1467FF"/>
<path d="M22.4981 18.7502C22.1531 18.7502 21.8731 18.4702 21.8731 18.1252V11.6365L7.85312 4.62145C7.54437 4.4677 7.41937 4.09145 7.57437 3.7827C7.72937 3.47395 8.10437 3.3502 8.41312 3.5027L22.7781 10.6902C22.9894 10.7977 23.1231 11.014 23.1231 11.2502V18.1252C23.1231 18.4702 22.8431 18.7502 22.4981 18.7502Z" fill="#1467FF"/>
</g>
<defs>
<clipPath id="clip0">
<rect width="30" height="30" fill="white"/>
</clipPath>
</defs>
</svg>
