<svg width="360" height="428" viewBox="0 0 360 428" fill="none" xmlns="http://www.w3.org/2000/svg">
<path d="M-28 424.552C116.914 456.043 402.897 175.497 327.284 58.9846C251.672 -57.5279 97.0496 194.449 415.21 174.954C733.37 155.459 75.2311 585.345 523 0.999777" stroke="url(#paint0_linear)" stroke-dasharray="6.8 6.8"/>
<g filter="url(#filter0_d)">
<circle cx="335" cy="131" r="15" fill="#7AACFF"/>
<circle cx="335" cy="131" r="11.0526" fill="#1467FF"/>
<circle cx="335" cy="131" r="7.10526" fill="white"/>
</g>
<path d="M338.745 127.619L333.381 131.909L331.356 129.344C331.248 129.21 331.096 129.127 330.932 129.113C330.768 129.1 330.606 129.157 330.481 129.272C330.356 129.388 330.279 129.552 330.265 129.729C330.252 129.906 330.304 130.082 330.41 130.218L332.812 133.258C332.914 133.387 333.058 133.47 333.214 133.489C333.37 133.509 333.528 133.463 333.654 133.362L339.485 128.699C339.617 128.593 339.706 128.435 339.73 128.258C339.754 128.082 339.713 127.902 339.615 127.759C339.517 127.616 339.37 127.52 339.207 127.494C339.044 127.467 338.878 127.512 338.745 127.618V127.619Z" fill="#1467FF"/>
<defs>
<filter id="filter0_d" x="306" y="116" width="58" height="58" filterUnits="userSpaceOnUse" color-interpolation-filters="sRGB">
<feFlood flood-opacity="0" result="BackgroundImageFix"/>
<feColorMatrix in="SourceAlpha" type="matrix" values="0 0 0 0 0 0 0 0 0 0 0 0 0 0 0 0 0 0 127 0"/>
<feOffset dy="14"/>
<feGaussianBlur stdDeviation="7"/>
<feColorMatrix type="matrix" values="0 0 0 0 0.080303 0 0 0 0 0.402479 0 0 0 0 1 0 0 0 0.28 0"/>
<feBlend mode="normal" in2="BackgroundImageFix" result="effect1_dropShadow"/>
<feBlend mode="normal" in="SourceGraphic" in2="effect1_dropShadow" result="shape"/>
</filter>
<linearGradient id="paint0_linear" x1="516.161" y1="135.627" x2="11.2812" y2="259.199" gradientUnits="userSpaceOnUse">
<stop offset="0.231057" stop-color="#808080"/>
<stop offset="0.855301" stop-opacity="0"/>
</linearGradient>
</defs>
</svg>
