<svg width="553" height="428" fill="none" xmlns="http://www.w3.org/2000/svg"><path d="M1.00001 424.552C145.914 456.043 431.897 175.497 356.284 58.9848 280.672-57.5276 126.05 194.449 444.21 174.954 762.37 155.459 104.231 585.345 552 1.00001" stroke="url(#paint0_linear)" stroke-dasharray="6.8 6.8"/><g filter="url(#filter0_d)"><circle cx="364" cy="131" r="15" fill="#7AACFF"/><circle cx="364" cy="131" r="11.0526" fill="#1467FF"/><circle cx="364" cy="131" r="7.10526" fill="#fff"/></g><path d="M367.745 127.619l-5.364 4.29-2.025-2.564c-.108-.135-.26-.218-.424-.232-.164-.013-.326.044-.451.16-.125.115-.202.279-.216.456-.013.178.039.353.145.489l2.402 3.04c.102.13.246.212.402.232.156.019.313-.027.44-.128l5.831-4.663c.132-.106.221-.264.245-.441.024-.176-.017-.356-.115-.499-.098-.143-.245-.239-.408-.265-.163-.026-.329.018-.462.124v.001z" fill="#1467FF"/><defs><linearGradient id="paint0_linear" x1="545.161" y1="135.628" x2="40.2812" y2="259.199" gradientUnits="userSpaceOnUse"><stop offset=".231057" stop-color="gray"/><stop offset=".855301" stop-opacity="0"/></linearGradient><filter id="filter0_d" x="335" y="116" width="58" height="58" filterUnits="userSpaceOnUse" color-interpolation-filters="sRGB"><feFlood flood-opacity="0" result="BackgroundImageFix"/><feColorMatrix in="SourceAlpha" values="0 0 0 0 0 0 0 0 0 0 0 0 0 0 0 0 0 0 127 0"/><feOffset dy="14"/><feGaussianBlur stdDeviation="7"/><feColorMatrix values="0 0 0 0 0.080303 0 0 0 0 0.402479 0 0 0 0 1 0 0 0 0.28 0"/><feBlend in2="BackgroundImageFix" result="effect1_dropShadow"/><feBlend in="SourceGraphic" in2="effect1_dropShadow" result="shape"/></filter></defs></svg>
