<svg width="36" height="34" viewBox="0 0 36 34" fill="none" xmlns="http://www.w3.org/2000/svg">
<path d="M26.9825 30.804C27.0254 30.901 27.0278 31.0101 26.9892 31.1078C26.9505 31.2055 26.8739 31.2837 26.7761 31.3256C26.6782 31.3674 26.567 31.3694 26.4666 31.3312C26.3661 31.2931 26.2846 31.2177 26.2398 31.1216L25.9525 30.4896C25.93 30.4414 25.9174 30.3894 25.9154 30.3366C25.9135 30.2839 25.9222 30.2314 25.9411 30.1822C25.9599 30.1331 25.9886 30.0882 26.0255 30.0502C26.0623 30.0122 26.1065 29.9818 26.1556 29.9608C26.2047 29.9398 26.2576 29.9287 26.3114 29.9279C26.3651 29.9272 26.4187 29.9369 26.4688 29.9566C26.519 29.9762 26.5648 30.0054 26.6037 30.0423C26.6425 30.0793 26.6736 30.1234 26.6952 30.172L26.9825 30.804Z" fill="#1467FF"/>
<path d="M22.2582 22.1707C22.2767 22.089 22.3211 22.0154 22.385 21.9604C22.449 21.9055 22.5292 21.8719 22.6143 21.8644C22.6994 21.857 22.7851 21.8761 22.8591 21.919C22.9332 21.9619 22.9919 22.0264 23.0269 22.1035L25.9086 28.442C25.9311 28.4902 25.9437 28.5422 25.9456 28.5949C25.9476 28.6477 25.9389 28.7001 25.92 28.7493C25.9011 28.7985 25.8724 28.8434 25.8356 28.8814C25.7988 28.9194 25.7545 28.9497 25.7055 28.9707C25.6564 28.9917 25.6034 29.0029 25.5497 29.0036C25.4959 29.0043 25.4424 28.9946 25.3922 28.975C25.342 28.9553 25.2962 28.9262 25.2573 28.8892C25.2185 28.8522 25.1874 28.8082 25.1659 28.7595L22.2841 22.4213C22.2481 22.3424 22.2389 22.2544 22.2582 22.1707Z" fill="#1467FF"/>
<path d="M35.7826 8.16433L35.748 8.24411C35.0788 9.78753 33.9423 11.0876 32.4907 11.9701L26.9429 15.3534L27.2226 18.0136C27.7032 17.881 28.2186 17.9239 28.6739 18.1343C29.1293 18.3447 29.4939 18.7084 29.7007 19.1585C29.9075 19.6086 29.9425 20.1148 29.7993 20.5838C29.6561 21.0529 29.3443 21.4533 28.9213 21.7112L27.69 22.4622L27.7866 23.3808C28.2671 23.2499 28.7819 23.2941 29.2362 23.5053C29.6906 23.7166 30.0541 24.0806 30.2599 24.5306C30.4657 24.9806 30.4999 25.4862 30.3564 25.9546C30.2129 26.4231 29.9012 26.8228 29.4786 27.0804L28.2543 27.827L28.7191 32.2484C28.7268 32.3223 28.7134 32.3967 28.6804 32.463C28.6475 32.5294 28.5961 32.5852 28.5323 32.6243L26.3806 33.9364C26.3282 33.9696 26.2685 33.9905 26.2063 33.9977C26.1198 34.0069 26.0323 33.9887 25.9564 33.9458C25.8806 33.9029 25.8204 33.8374 25.7847 33.7591L21.5572 24.4608C21.5171 24.3728 21.5106 24.2739 21.5387 24.1823C21.5669 24.0907 21.6278 24.0126 21.7105 23.9622C21.7597 23.9321 21.8152 23.9129 21.873 23.9058C21.9309 23.8987 21.9897 23.9039 22.0456 23.9211C22.1015 23.9383 22.1532 23.967 22.197 24.0054C22.2409 24.0437 22.276 24.0907 22.2999 24.1433L26.3349 33.0183L27.8835 32.0743L26.1747 15.8218L20.1793 19.4782L21.1783 21.6755C21.2183 21.7636 21.2249 21.8625 21.1967 21.954C21.1686 22.0456 21.1076 22.1238 21.025 22.1742C20.9757 22.2042 20.9203 22.2234 20.8624 22.2305C20.8046 22.2376 20.7457 22.2324 20.6898 22.2152C20.6339 22.198 20.5823 22.1693 20.5384 22.131C20.4946 22.0927 20.4595 22.0456 20.4356 21.9931L19.4848 19.9017L12.5017 24.1603L11.6176 30.5074C11.6097 30.5649 11.589 30.6199 11.5569 30.6684C11.5249 30.7169 11.4824 30.7578 11.4324 30.7883L9.72771 31.8277C9.68257 31.8552 9.63223 31.8737 9.57957 31.8821C9.52691 31.8904 9.47295 31.8885 9.42079 31.8764C9.36862 31.8643 9.31927 31.8423 9.27554 31.8116C9.23181 31.7809 9.19456 31.7421 9.16593 31.6974L5.51913 26.0126L4.63626 26.2332C4.32154 26.3187 3.98574 26.3014 3.67929 26.1838C3.37284 26.0662 3.11228 25.8548 2.93677 25.5812C2.76125 25.3076 2.68025 24.9866 2.70592 24.6665C2.73159 24.3464 2.86256 24.0444 3.07915 23.8059L3.66907 23.1285L0.0633142 17.5078C0.00549507 17.4176 -0.0137462 17.3091 0.00982067 17.2061C0.0333876 17.103 0.0978324 17.0139 0.188981 16.9583L1.89369 15.9187C1.94324 15.8885 1.99901 15.8692 2.05716 15.8622C2.11531 15.8552 2.17448 15.8607 2.2306 15.8782L8.4311 17.8185L15.4155 13.5591L5.39293 1.97141C5.35492 1.92747 5.32689 1.87615 5.31074 1.82091C5.29459 1.76568 5.2907 1.70784 5.29932 1.65131C5.30073 1.64181 5.30258 1.63249 5.30471 1.62317C5.32828 1.52014 5.39272 1.43103 5.48385 1.37545L7.64182 0.0594303C7.70572 0.0204625 7.77965 -0.000117416 7.85532 5.03911e-07C7.93099 0.000118423 8.0054 0.0209281 8.07018 0.0600965L11.9443 2.40244L13.169 1.65562C13.5914 1.39783 14.0965 1.29947 14.5913 1.37863C15.0862 1.45778 15.5375 1.70912 15.8624 2.08646C16.1874 2.46381 16.364 2.9418 16.36 3.4326C16.356 3.9234 16.1715 4.39404 15.8404 4.75802L16.6453 5.24471L17.8767 4.49378C18.2997 4.23624 18.8052 4.13839 19.3003 4.21822C19.7954 4.29805 20.2467 4.5502 20.5712 4.92829C20.8958 5.30638 21.0717 5.78499 21.0667 6.2761C21.0618 6.76721 20.8762 7.23779 20.5441 7.60131L22.8739 9.01054L28.4222 5.62713C29.8765 4.73941 31.5782 4.31231 33.2995 4.40303L33.3723 4.40668C33.8146 4.42903 34.2461 4.55635 34.6297 4.77768C35.0134 4.99902 35.3377 5.30776 35.5747 5.67736C35.8118 6.04697 35.9546 6.4664 35.9908 6.89959C36.027 7.33279 35.9556 7.7668 35.7826 8.16433ZM27.8729 24.1988L28.1609 26.9383L29.0429 26.4004C29.3108 26.2371 29.5051 25.9802 29.587 25.6806C29.669 25.3811 29.6327 25.0608 29.4853 24.7834C29.3379 24.5061 29.0902 24.292 28.7915 24.1836C28.4927 24.0753 28.1648 24.0807 27.8729 24.1988ZM27.3086 18.8325L27.5968 21.5732L28.4853 21.0314C28.7539 20.8679 28.9485 20.6103 29.0303 20.31C29.112 20.0096 29.075 19.6887 28.9264 19.4111C28.7779 19.1336 28.5289 18.9198 28.229 18.8126C27.9291 18.7053 27.6004 18.7124 27.3086 18.8325ZM30.8354 12.0335L30.6927 11.9796C30.5297 11.9184 30.355 11.8947 30.1821 11.9103C30.0092 11.9259 29.8428 11.9804 29.6958 12.0695L28.6675 12.6965L28.9714 13.1703L30.8354 12.0335ZM28.284 13.5898L27.9801 13.1161L26.6521 13.9259L26.9561 14.3996L28.284 13.5898ZM26.2688 14.8187L25.9649 14.3449L24.637 15.1548L24.9409 15.6285L26.2688 14.8187ZM24.2535 16.0477L23.9496 15.5737L22.6218 16.3835L22.9257 16.8573L24.2535 16.0477ZM22.2382 17.2767L21.9343 16.803L20.6064 17.6127L20.9103 18.0865L22.2382 17.2767ZM20.223 18.5057L19.919 18.0319L18.5912 18.8418L18.895 19.3155L20.223 18.5057ZM18.2077 19.7347L17.9037 19.2609L16.5759 20.0707L16.8798 20.5445L18.2077 19.7347ZM16.1923 20.9637L15.8885 20.49L14.8936 21.0966C14.7276 21.1983 14.5921 21.3411 14.5005 21.5109C14.4089 21.6807 14.3644 21.8715 14.3714 22.0646L14.3717 22.074L16.1923 20.9637ZM9.63533 30.9384L10.8366 30.2058L11.6337 24.4834L6.34327 25.8065L9.63533 30.9384ZM0.968583 17.4282L4.21958 22.4961L7.75143 18.4408L2.17141 16.6947L0.968583 17.4282ZM11.1903 17.0813C11.3633 17.1663 11.5551 17.2067 11.7474 17.1988C11.9397 17.1909 12.1262 17.1349 12.289 17.036L13.2838 16.4294L12.9956 15.9802L11.1903 17.0813ZM13.683 15.5611L13.9712 16.0103L15.2991 15.2005L15.0109 14.7513L13.683 15.5611ZM15.6983 14.3321L15.9865 14.7813L17.3143 13.9715L17.0262 13.5223L15.6983 14.3321ZM15.3494 2.73986C15.1696 2.46025 14.8849 2.26064 14.5579 2.1848C14.2309 2.10897 13.8882 2.16311 13.6051 2.33535L12.723 2.87326L15.1234 4.32451C15.3464 4.13161 15.4914 3.86657 15.5328 3.57646C15.5741 3.28635 15.5092 2.98994 15.3494 2.73986ZM20.2229 6.51494C20.2774 6.27632 20.2585 6.02629 20.1683 5.79647C20.0782 5.56664 19.9209 5.36733 19.7164 5.22376C19.5119 5.08018 19.2694 4.99878 19.0195 4.98984C18.7696 4.98091 18.5236 5.04485 18.3125 5.17357L17.424 5.71543L19.8257 7.16753C20.0259 6.99778 20.165 6.76922 20.2229 6.51494ZM7.86506 0.868863L6.31692 1.8131L16.1102 13.1352L22.1058 9.47887L7.86506 0.868863ZM18.0017 13.5524L19.3296 12.7426L19.0414 12.2934L17.7135 13.1032L18.0017 13.5524ZM20.0171 12.3235L21.345 11.5136L21.0568 11.0644L19.7288 11.8741L20.0171 12.3235ZM22.0324 11.0945L23.3603 10.2847L23.072 9.83544L21.7442 10.6452L22.0324 11.0945ZM23.7595 9.41619L24.0477 9.86544L25.3755 9.05566L25.0874 8.60642L23.7595 9.41619ZM25.7748 8.18725L26.063 8.63649L27.0912 8.00939C27.2377 7.91945 27.3607 7.79739 27.4508 7.65264C27.5408 7.5079 27.5954 7.34435 27.6104 7.17465L27.62 7.06191L25.7748 8.18725ZM28.8582 6.30683L28.4825 6.53585L28.4216 7.25135C28.3958 7.54367 28.3017 7.8254 28.1467 8.07473C27.9916 8.32407 27.7797 8.53434 27.5273 8.68925L12.725 17.7161C12.4383 17.8902 12.1093 17.9872 11.7705 17.9976C11.4318 18.0079 11.095 17.9313 10.7936 17.7752L10.3937 17.5672L8.67879 18.6128L3.69761 24.3327L3.69047 24.3407C3.58968 24.451 3.52848 24.5908 3.51608 24.7391C3.50368 24.8875 3.54075 25.0364 3.6217 25.1635C3.70349 25.2901 3.8246 25.3878 3.96685 25.4418C4.1091 25.4959 4.26481 25.5034 4.41058 25.4633C4.41409 25.4623 4.41757 25.4614 4.42112 25.4605L11.8759 23.5964L13.5764 22.5593L13.5582 22.0846C13.552 21.922 13.5672 21.7596 13.6035 21.6014C13.7156 21.1091 14.0227 20.6831 14.4574 20.4165L29.2597 11.3899C29.513 11.2364 29.7997 11.1426 30.0975 11.1157C30.3953 11.0889 30.6963 11.1297 30.9772 11.2351L31.698 11.5077L32.0545 11.2903C32.806 10.8327 33.4686 10.2486 34.0121 9.56447L33.4008 9.70597C32.9011 9.82204 32.3749 9.78033 31.8967 9.58675C31.4185 9.39318 31.0127 9.05757 30.7368 8.62753C30.461 8.19749 30.329 7.69486 30.3597 7.19094C30.3904 6.68701 30.5823 6.20738 30.9079 5.82008L31.3048 5.34723C30.4366 5.52389 29.6087 5.84868 28.8582 6.30683ZM33.3408 5.20423L33.2679 5.20057C33.0069 5.18743 32.7473 5.18825 32.4894 5.20046L31.5389 6.3326C31.3218 6.59143 31.1941 6.91175 31.1739 7.24818C31.1536 7.58462 31.2418 7.92013 31.426 8.20721C31.6102 8.49429 31.8811 8.71839 32.2002 8.84778C32.5194 8.97717 32.8707 9.0053 33.2044 8.92818L34.6658 8.59016C34.787 8.37396 34.8989 8.15168 34.9987 7.92233L35.0334 7.84255C35.1549 7.56339 35.205 7.25861 35.1796 6.95441C35.1542 6.65021 35.0539 6.35569 34.8874 6.09614C34.7209 5.8366 34.4931 5.6198 34.2237 5.46438C33.9543 5.30896 33.6514 5.21992 33.3408 5.20423Z" fill="#1467FF"/>
</svg>
