<svg width="30" height="30" viewBox="0 0 30 30" fill="none" xmlns="http://www.w3.org/2000/svg">
<path d="M15 30C6.72867 30 0 23.2713 0 15C0 6.72867 6.72867 0 15 0C23.2713 0 30 6.72867 30 15C30 23.2713 23.2713 30 15 30ZM15 1.875C7.76253 1.875 1.875 7.76253 1.875 15C1.875 22.2375 7.76253 28.125 15 28.125C22.2375 28.125 28.125 22.2375 28.125 15C28.125 7.76253 22.2375 1.875 15 1.875Z" fill="#1467FF"/>
<path d="M21.5625 23.1252C21.3224 23.1252 21.0825 23.0338 20.8999 22.85L14.3374 16.2875C14.1611 16.1113 14.0625 15.8726 14.0625 15.6252V6.875C14.0625 6.3575 14.4825 5.9375 15 5.9375C15.5175 5.9375 15.9375 6.3575 15.9375 6.875V15.2363L22.2251 21.5239C22.5913 21.8901 22.5913 22.4838 22.2251 22.85C22.0425 23.0338 21.8026 23.1252 21.5625 23.1252Z" fill="#1467FF"/>
</svg>
