<svg width="205" height="30" fill="none" xmlns="http://www.w3.org/2000/svg"><path d="M10.72 16.23c0-1.62-.37-2.88-1.11-3.78-.72-.9-1.89-1.35-3.51-1.35-.34 0-.7.02-1.08.06-.36.02-.72.08-1.08.18v8.97c.32.22.74.43 1.26.63.54.18 1.11.27 1.71.27 1.32 0 2.28-.45 2.88-1.35.62-.9.93-2.11.93-3.63zm3.72-.06c0 1.2-.16 2.3-.48 3.3-.3 1-.74 1.86-1.32 2.58-.58.72-1.31 1.28-2.19 1.68-.86.4-1.84.6-2.94.6-.74 0-1.42-.09-2.04-.27-.62-.18-1.13-.38-1.53-.6v6.09H.31V8.82c.74-.2 1.65-.39 2.73-.57 1.08-.18 2.22-.27 3.42-.27 1.24 0 2.35.19 3.33.57.98.38 1.81.93 2.49 1.65.7.7 1.23 1.56 1.59 2.58.38 1 .57 2.13.57 3.39zm12.6811-4.59c-.3-.1-.72-.2-1.26-.3-.52-.12-1.13-.18-1.83-.18-.4 0-.83.04-1.29.12-.44.08-.75.15-.93.21V24h-3.63V9.06c.7-.26 1.57-.5 2.61-.72 1.06-.24 2.23-.36 3.51-.36.24 0 .52.02.84.06.32.02.64.06.96.12.32.04.63.1.93.18.3.06.54.12.72.18l-.63 3.06zm17.3496 4.56c0 1.24-.18 2.37-.54 3.39-.36 1.02-.87 1.89-1.53 2.61s-1.46 1.28-2.4 1.68c-.92.4-1.94.6-3.06.6s-2.14-.2-3.06-.6c-.92-.4-1.71-.96-2.37-1.68-.66-.72-1.18-1.59-1.56-2.61-.36-1.02-.54-2.15-.54-3.39 0-1.24.18-2.36.54-3.36.38-1.02.9-1.89 1.56-2.61.68-.72 1.48-1.27 2.4-1.65.92-.4 1.93-.6 3.03-.6 1.1 0 2.11.2 3.03.6.94.38 1.74.93 2.4 1.65.66.72 1.17 1.59 1.53 2.61.38 1 .57 2.12.57 3.36zm-3.72 0c0-1.56-.34-2.79-1.02-3.69-.66-.92-1.59-1.38-2.79-1.38s-2.14.46-2.82 1.38c-.66.9-.99 2.13-.99 3.69 0 1.58.33 2.83.99 3.75.68.92 1.62 1.38 2.82 1.38 1.2 0 2.13-.46 2.79-1.38.68-.92 1.02-2.17 1.02-3.75zm11.3897 5.25c.96 0 1.66-.11 2.1-.33.44-.24.66-.64.66-1.2 0-.52-.24-.95-.72-1.29-.46-.34-1.23-.71-2.31-1.11-.66-.24-1.27-.49-1.83-.75-.54-.28-1.01-.6-1.41-.96-.4-.36-.72-.79-.96-1.29-.22-.52-.33-1.15-.33-1.89 0-1.44.53-2.57 1.59-3.39 1.06-.84 2.5-1.26 4.32-1.26.92 0 1.8.09 2.64.27.84.16 1.47.32 1.89.48l-.66 2.94c-.4-.18-.91-.34-1.53-.48-.62-.16-1.34-.24-2.16-.24-.74 0-1.34.13-1.8.39-.46.24-.69.62-.69 1.14 0 .26.04.49.12.69.1.2.26.39.48.57.22.16.51.33.87.51.36.16.8.33 1.32.51.86.32 1.59.64 2.19.96.6.3 1.09.65 1.47 1.05.4.38.69.82.87 1.32.18.5.27 1.1.27 1.8 0 1.5-.56 2.64-1.68 3.42-1.1.76-2.68 1.14-4.74 1.14-1.38 0-2.49-.12-3.33-.36-.84-.22-1.43-.4-1.77-.54l.63-3.03c.54.22 1.18.43 1.92.63.76.2 1.62.3 2.58.3zm9.6009-17.22l3.63-.6v4.74h5.58v3.03h-5.58v6.39c0 1.26.2 2.16.6 2.7.4.54 1.08.81 2.04.81.66 0 1.24-.07 1.74-.21.52-.14.93-.27 1.23-.39l.6 2.88c-.42.18-.97.36-1.65.54-.68.2-1.48.3-2.4.3-1.12 0-2.06-.15-2.82-.45-.74-.3-1.33-.73-1.77-1.29-.44-.58-.75-1.27-.93-2.07-.18-.82-.27-1.75-.27-2.79V4.17zm26.5575 11.97c0 1.24-.18 2.37-.54 3.39-.36 1.02-.87 1.89-1.53 2.61s-1.46 1.28-2.4 1.68c-.92.4-1.94.6-3.06.6s-2.14-.2-3.06-.6c-.92-.4-1.71-.96-2.37-1.68-.66-.72-1.18-1.59-1.56-2.61-.36-1.02-.54-2.15-.54-3.39 0-1.24.18-2.36.54-3.36.38-1.02.9-1.89 1.56-2.61.68-.72 1.48-1.27 2.4-1.65.92-.4 1.93-.6 3.03-.6 1.1 0 2.11.2 3.03.6.94.38 1.74.93 2.4 1.65.66.72 1.17 1.59 1.53 2.61.38 1 .57 2.12.57 3.36zm-3.72 0c0-1.56-.34-2.79-1.02-3.69-.66-.92-1.59-1.38-2.79-1.38s-2.14.46-2.82 1.38c-.66.9-.99 2.13-.99 3.69 0 1.58.33 2.83.99 3.75.68.92 1.62 1.38 2.82 1.38 1.2 0 2.13-.46 2.79-1.38.68-.92 1.02-2.17 1.02-3.75zm17.8702-.03c0-1.54-.31-2.76-.93-3.66-.6-.9-1.5605-1.35-2.8805-1.35-.6 0-1.17.09-1.71.27-.52.18-.94.38-1.26.6V21c.26.06.59.12.99.18.42.04.92.06 1.5.06 1.34 0 2.3905-.45 3.1505-1.35.76-.92 1.14-2.18 1.14-3.78zm3.72.06c0 1.26-.19 2.4-.57 3.42-.36 1-.89 1.86-1.59 2.58-.68.72-1.51 1.27-2.49 1.65-.98.38-2.0905.57-3.3305.57-1.2 0-2.35-.09-3.45-.27-1.08-.18-1.98-.38-2.7-.6V1.32l3.63-.600001V8.85c.42-.22.93-.42 1.53-.6.62-.18 1.3-.27 2.04-.27 1.1005 0 2.0805.2 2.9405.6.88.38 1.61.93 2.19 1.65.58.72 1.02 1.59 1.32 2.61.32 1 .48 2.11.48 3.33zm17.931-.03c0 1.24-.18 2.37-.54 3.39-.36 1.02-.87 1.89-1.53 2.61s-1.46 1.28-2.4 1.68c-.92.4-1.94.6-3.06.6s-2.14-.2-3.06-.6c-.92-.4-1.71-.96-2.37-1.68-.66-.72-1.18-1.59-1.56-2.61-.36-1.02-.54-2.15-.54-3.39 0-1.24.18-2.36.54-3.36.38-1.02.9-1.89 1.56-2.61.68-.72 1.48-1.27 2.4-1.65.92-.4 1.93-.6 3.03-.6 1.1 0 2.11.2 3.03.6.94.38 1.74.93 2.4 1.65.66.72 1.17 1.59 1.53 2.61.38 1 .57 2.12.57 3.36zm-3.72 0c0-1.56-.34-2.79-1.02-3.69-.66-.92-1.59-1.38-2.79-1.38s-2.14.46-2.82 1.38c-.66.9-.99 2.13-.99 3.69 0 1.58.33 2.83.99 3.75.68.92 1.62 1.38 2.82 1.38 1.2 0 2.13-.46 2.79-1.38.68-.92 1.02-2.17 1.02-3.75zm12.66-2.7l3.33-5.13h3.81l-5.16 7.41c1.08 1.4 2.11 2.82 3.09 4.26 1 1.42 1.82 2.76 2.46 4.02h-3.93c-.18-.38-.42-.81-.72-1.29-.28-.5-.59-1.01-.93-1.53-.32-.54-.66-1.07-1.02-1.59s-.71-1.01-1.05-1.47c-.7.9-1.39 1.9-2.07 3-.66 1.08-1.21 2.04-1.65 2.88h-3.72c.3-.6.66-1.24 1.08-1.92.42-.68.87-1.37 1.35-2.07.48-.72.97-1.43 1.47-2.13.52-.72 1.03-1.4 1.53-2.04l-5.19-7.53h3.99l3.33 5.13zm14.319 8.58c0 .7-.24 1.27-.72 1.71-.46.44-1.02.66-1.68.66-.68 0-1.25-.22-1.71-.66-.46-.44-.69-1.01-.69-1.71s.23-1.27.69-1.71c.46-.46 1.03-.69 1.71-.69.66 0 1.22.23 1.68.69.48.44.72 1.01.72 1.71zm3.019-5.85c0-1.16.18-2.24.539-3.24.361-1.02.871-1.9 1.531-2.64.68-.74 1.5-1.32 2.46-1.74.96-.42 2.04-.63 3.24-.63 1.48 0 2.88.27 4.2.81l-.78 2.97c-.42-.18-.9-.33-1.44-.45-.52-.12-1.08-.18-1.68-.18-1.42 0-2.5.45-3.24 1.35-.74.88-1.11 2.13-1.11 3.75 0 1.56.35 2.8 1.05 3.72.7.9 1.88 1.35 3.54 1.35.62 0 1.23-.06 1.83-.18.6-.12 1.12-.27 1.56-.45l.51 3c-.4.2-1.01.38-1.83.54-.8.16-1.63.24-2.49.24-1.34 0-2.51-.2-3.51-.6-.98-.42-1.8-.99-2.46-1.71-.64-.74-1.12-1.61-1.44-2.61-.32-1.02-.48-2.12-.48-3.3zm28.888-.03c0 1.24-.18 2.37-.54 3.39-.36 1.02-.87 1.89-1.53 2.61s-1.46 1.28-2.4 1.68c-.92.4-1.94.6-3.06.6s-2.14-.2-3.06-.6c-.92-.4-1.71-.96-2.37-1.68-.66-.72-1.18-1.59-1.56-2.61-.36-1.02-.54-2.15-.54-3.39 0-1.24.18-2.36.54-3.36.38-1.02.9-1.89 1.56-2.61.68-.72 1.48-1.27 2.4-1.65.92-.4 1.93-.6 3.03-.6 1.1 0 2.11.2 3.03.6.94.38 1.74.93 2.4 1.65.66.72 1.17 1.59 1.53 2.61.38 1 .57 2.12.57 3.36zm-3.72 0c0-1.56-.34-2.79-1.02-3.69-.66-.92-1.59-1.38-2.79-1.38s-2.14.46-2.82 1.38c-.66.9-.99 2.13-.99 3.69 0 1.58.33 2.83.99 3.75.68.92 1.62 1.38 2.82 1.38 1.2 0 2.13-.46 2.79-1.38.68-.92 1.02-2.17 1.02-3.75zm16.399-.39c0-1.64-.21-2.82-.63-3.54-.4-.74-1.16-1.11-2.28-1.11-.4 0-.84.03-1.32.09-.48.06-.84.11-1.08.15V24h-3.63V8.82c.7-.2 1.61-.39 2.73-.57 1.14-.18 2.34-.27 3.6-.27 1.08 0 1.96.14 2.64.42.7.28 1.28.65 1.74 1.11.22-.16.5-.33.84-.51.34-.18.72-.34 1.14-.48.42-.16.86-.29 1.32-.39.48-.1.96-.15 1.44-.15 1.22 0 2.22.18 3 .54.8.34 1.42.83 1.86 1.47.46.62.77 1.38.93 2.28.18.88.27 1.85.27 2.91V24h-3.63v-8.25c0-1.64-.2-2.82-.6-3.54-.4-.74-1.17-1.11-2.31-1.11-.58 0-1.13.1-1.65.3-.52.18-.91.36-1.17.54.16.5.27 1.03.33 1.59s.09 1.16.09 1.8V24h-3.63v-8.25z" fill="#000"/></svg>
