<svg width="2438" height="1282" viewBox="0 0 2438 1282" fill="none" xmlns="http://www.w3.org/2000/svg">
<path d="M239.001 205C59.9437 368.667 551.001 679.5 551.001 515C551.001 350.5 291.004 674.043 410.501 846.5C529.999 1018.96 971.002 938 1282.5 839" stroke="url(#paint0_linear)" stroke-dasharray="6.8 6.8"/>
<path d="M2437.39 233.094C2214.89 201.594 1766.8 534.051 1882.89 650.594C1998.99 767.138 2169.39 523.763 1830.39 461.594C1491.39 399.426 1917.89 261.094 1706.39 515.094" stroke="url(#paint1_linear)" stroke-dasharray="6.8 6.8"/>
<g filter="url(#filter0_d)">
<circle cx="499" cy="912" r="19" fill="#DDEAFF"/>
<circle cx="499" cy="912" r="14" fill="#BBD3FF"/>
<circle cx="499" cy="912" r="9" fill="#BBD3FF"/>
</g>
<g filter="url(#filter1_d)">
<circle cx="1992" cy="424" r="19" fill="#DDEAFF"/>
<circle cx="1992" cy="424" r="14" fill="#BBD3FF"/>
<circle cx="1992" cy="424" r="9" fill="#BBD3FF"/>
</g>
<path d="M519.111 840.035C519.208 839.906 519.248 839.744 519.224 839.585C519.2 839.427 519.113 839.284 518.982 839.187C518.851 839.091 518.686 839.05 518.524 839.072C518.362 839.094 518.215 839.178 518.116 839.306L517.475 840.148C517.425 840.212 517.389 840.285 517.368 840.363C517.347 840.441 517.342 840.522 517.353 840.602C517.365 840.682 517.392 840.758 517.434 840.828C517.476 840.897 517.531 840.958 517.597 841.006C517.663 841.054 517.737 841.089 517.817 841.109C517.897 841.128 517.979 841.132 518.061 841.12C518.142 841.108 518.22 841.081 518.29 841.039C518.36 840.997 518.421 840.943 518.47 840.878L519.111 840.035Z" fill="#808080"/>
<path d="M509.162 851.263C509.162 851.391 509.203 851.516 509.279 851.62C509.355 851.724 509.463 851.801 509.587 851.842C509.711 851.882 509.845 851.883 509.969 851.845C510.094 851.807 510.203 851.731 510.281 851.628L516.713 843.183C516.762 843.119 516.799 843.046 516.82 842.968C516.84 842.89 516.845 842.809 516.834 842.729C516.823 842.649 516.795 842.573 516.753 842.503C516.712 842.434 516.656 842.374 516.591 842.325C516.525 842.277 516.45 842.242 516.37 842.223C516.291 842.203 516.208 842.199 516.127 842.211C516.046 842.223 515.968 842.25 515.897 842.292C515.827 842.334 515.766 842.389 515.718 842.454L509.286 850.898C509.205 851.003 509.162 851.131 509.162 851.263V851.263Z" fill="#808080"/>
<path d="M524.49 876.795L524.465 876.664C523.996 874.134 522.75 871.805 520.894 869.989L513.805 863.034L515.124 859.168C515.792 859.532 516.572 859.646 517.32 859.49C518.067 859.334 518.732 858.918 519.192 858.319C519.652 857.72 519.876 856.978 519.823 856.23C519.769 855.482 519.442 854.778 518.902 854.248L517.328 852.704L517.784 851.369C518.453 851.73 519.232 851.842 519.979 851.685C520.725 851.527 521.389 851.11 521.847 850.511C522.305 849.912 522.528 849.171 522.474 848.423C522.42 847.676 522.093 846.973 521.553 846.444L519.989 844.909L522.18 838.484C522.217 838.377 522.222 838.261 522.196 838.151C522.169 838.041 522.112 837.94 522.03 837.86L519.281 835.162C519.214 835.095 519.133 835.043 519.043 835.011C518.918 834.967 518.782 834.964 518.654 835.002C518.527 835.039 518.416 835.116 518.336 835.221L508.901 847.609C508.811 847.726 508.768 847.871 508.779 848.018C508.789 848.164 508.853 848.301 508.959 848.405C509.022 848.467 509.098 848.514 509.181 848.545C509.265 848.575 509.354 848.588 509.443 848.582C509.531 848.575 509.618 848.55 509.696 848.509C509.774 848.467 509.842 848.409 509.896 848.339L518.901 836.514L520.88 838.455L512.823 862.071L505.162 854.554L507.392 851.627C507.481 851.509 507.525 851.364 507.514 851.218C507.503 851.072 507.439 850.935 507.334 850.831C507.271 850.769 507.195 850.722 507.111 850.691C507.028 850.66 506.939 850.648 506.85 850.654C506.761 850.66 506.675 850.685 506.597 850.727C506.518 850.769 506.45 850.827 506.397 850.897L504.275 853.684L495.352 844.929L496.195 835.17C496.202 835.082 496.19 834.993 496.159 834.91C496.128 834.826 496.079 834.751 496.015 834.688L493.837 832.551C493.779 832.494 493.711 832.45 493.635 832.419C493.56 832.388 493.479 832.373 493.398 832.373C493.316 832.373 493.235 832.388 493.16 832.419C493.084 832.45 493.016 832.494 492.958 832.551L485.612 839.758L484.376 839.125C483.938 838.889 483.434 838.799 482.939 838.868C482.444 838.937 481.985 839.162 481.631 839.509C481.278 839.856 481.048 840.306 480.978 840.792C480.907 841.277 480.999 841.772 481.24 842.202L481.886 843.415L474.623 850.541C474.506 850.655 474.441 850.81 474.441 850.972C474.441 851.134 474.506 851.289 474.623 851.403L476.801 853.54C476.864 853.602 476.94 853.65 477.024 853.681C477.108 853.711 477.198 853.723 477.287 853.717L487.154 852.969L496.078 861.725L477.26 875.522C477.189 875.574 477.13 875.641 477.087 875.718C477.044 875.794 477.019 875.879 477.012 875.966C477.011 875.981 477.011 875.995 477.011 876.01C477.011 876.172 477.076 876.327 477.193 876.441L479.95 879.146C480.032 879.226 480.135 879.283 480.247 879.308C480.359 879.334 480.477 879.329 480.587 879.293L487.135 877.143L488.7 878.678C489.239 879.208 489.956 879.529 490.718 879.582C491.479 879.635 492.235 879.416 492.846 878.967C493.456 878.517 493.881 877.866 494.042 877.133C494.202 876.401 494.088 875.636 493.72 874.98L495.081 874.533L496.654 876.077C497.195 876.606 497.912 876.927 498.674 876.979C499.437 877.031 500.193 876.811 500.803 876.36C501.413 875.909 501.837 875.257 501.996 874.524C502.156 873.791 502.04 873.026 501.67 872.37L505.609 871.076L512.698 878.031C514.556 879.856 516.938 881.08 519.525 881.539L519.634 881.559C520.299 881.678 520.983 881.638 521.627 881.44C522.272 881.243 522.859 880.895 523.336 880.427C523.814 879.958 524.168 879.383 524.369 878.75C524.57 878.117 524.611 877.446 524.49 876.795V876.795ZM518.19 850.181L519.548 846.2L520.675 847.306C521.017 847.642 521.219 848.091 521.238 848.566C521.258 849.04 521.096 849.505 520.783 849.867C520.47 850.229 520.029 850.463 519.549 850.521C519.068 850.579 518.583 850.458 518.19 850.181V850.181ZM515.529 857.978L516.888 853.996L518.024 855.11C518.367 855.446 518.568 855.897 518.588 856.373C518.607 856.848 518.443 857.313 518.128 857.675C517.813 858.038 517.371 858.27 516.889 858.326C516.408 858.382 515.922 858.258 515.53 857.978L515.529 857.978ZM518.457 869.323L518.227 869.354C517.964 869.389 517.697 869.364 517.445 869.281C517.194 869.198 516.965 869.059 516.777 868.876L515.463 867.587L516.076 866.986L518.457 869.323ZM515.197 866.124L514.585 866.724L512.888 865.06L513.5 864.459L515.197 866.124ZM512.622 863.597L512.01 864.198L510.313 862.533L510.926 861.933L512.622 863.597ZM510.047 861.071L509.435 861.672L507.738 860.007L508.35 859.407L510.047 861.071ZM507.472 858.544L506.86 859.145L505.163 857.48L505.775 856.88L507.472 858.544ZM504.897 856.018L504.285 856.619L502.588 854.954L503.2 854.353L504.897 856.018ZM502.322 853.491L501.71 854.092L500.013 852.427L500.625 851.827L502.322 853.491ZM499.747 850.965L499.134 851.565L497.863 850.318C497.651 850.109 497.498 849.85 497.42 849.565C497.342 849.281 497.34 848.981 497.416 848.696L497.42 848.682L499.747 850.965ZM493.398 833.844L494.933 835.35L494.173 844.148L486.766 840.35L493.398 833.844ZM475.94 850.972L482.488 844.547L486.356 851.807L477.477 852.48L475.94 850.972ZM491 855.02C491.286 854.953 491.585 854.959 491.868 855.037C492.15 855.115 492.408 855.263 492.616 855.466L493.888 856.714L493.307 857.283L491 855.02ZM494.186 858.145L494.766 857.575L496.463 859.24L495.882 859.809L494.186 858.145ZM496.761 860.671L497.341 860.102L499.038 861.766L498.457 862.336L496.761 860.671ZM492.306 877.816C491.944 878.17 491.453 878.369 490.942 878.369C490.431 878.369 489.94 878.17 489.578 877.816L488.451 876.71L492.508 875.378C492.774 875.742 492.899 876.187 492.862 876.633C492.825 877.08 492.628 877.499 492.306 877.816V877.816ZM500.824 873.877C500.824 874.251 500.711 874.617 500.499 874.928C500.287 875.239 499.986 875.482 499.634 875.625C499.281 875.768 498.894 875.806 498.52 875.733C498.145 875.66 497.802 875.479 497.532 875.215L496.397 874.101L500.456 872.768C500.696 873.09 500.825 873.478 500.824 873.877L500.824 873.877ZM480.557 878.018L478.578 876.077L496.966 862.596L504.627 870.113L480.557 878.018ZM499.916 862.628L501.613 864.293L501.033 864.862L499.336 863.198L499.916 862.628ZM502.492 865.155L504.188 866.819L503.608 867.389L501.911 865.724L502.492 865.155ZM505.067 867.681L506.764 869.346L506.183 869.915L504.486 868.251L505.067 867.681ZM507.061 870.777L507.642 870.208L509.339 871.872L508.758 872.442L507.061 870.777ZM509.637 873.304L510.217 872.734L511.531 874.023C511.718 874.208 511.859 874.432 511.944 874.679C512.028 874.926 512.054 875.188 512.018 875.446L511.994 875.617L509.637 873.304ZM513.576 877.169L513.096 876.699L513.249 875.612C513.31 875.168 513.266 874.715 513.12 874.291C512.975 873.866 512.731 873.479 512.409 873.161L493.495 854.604C493.128 854.246 492.673 853.988 492.173 853.855C491.674 853.723 491.148 853.721 490.647 853.849L489.983 854.021L487.791 851.871L482.337 841.631L482.329 841.617C482.217 841.418 482.174 841.189 482.206 840.963C482.238 840.738 482.343 840.529 482.507 840.368C482.671 840.207 482.884 840.104 483.114 840.072C483.343 840.041 483.577 840.084 483.78 840.194C483.785 840.196 483.79 840.199 483.794 840.201L494.231 845.553L496.404 847.685L496.216 848.385C496.151 848.625 496.119 848.873 496.119 849.121C496.118 849.893 496.43 850.633 496.985 851.18L515.899 869.737C516.223 870.053 516.617 870.292 517.05 870.435C517.483 870.578 517.944 870.621 518.397 870.561L519.56 870.404L520.015 870.851C520.976 871.792 521.761 872.891 522.336 874.098L521.476 873.676C520.774 873.33 519.978 873.211 519.202 873.334C518.427 873.457 517.71 873.817 517.154 874.362C516.599 874.907 516.232 875.61 516.106 876.371C515.981 877.132 516.103 877.913 516.455 878.602L516.884 879.444C515.654 878.881 514.535 878.111 513.576 877.169L513.576 877.169ZM519.858 880.36L519.749 880.34C519.357 880.27 518.972 880.179 518.593 880.071L517.566 878.057C517.331 877.596 517.251 877.075 517.335 876.567C517.419 876.059 517.664 875.59 518.035 875.226C518.406 874.862 518.884 874.622 519.402 874.539C519.92 874.457 520.451 874.536 520.92 874.766L522.976 875.775C523.082 876.138 523.173 876.508 523.243 876.884L523.268 877.015C523.353 877.473 523.324 877.944 523.183 878.388C523.042 878.833 522.793 879.237 522.458 879.566C522.122 879.895 521.711 880.139 521.258 880.277C520.805 880.416 520.325 880.444 519.858 880.36L519.858 880.36Z" fill="#808080"/>
<g clip-path="url(#clip0)">
<path d="M2005.45 389.092C2005.52 389.177 2005.54 389.282 2005.53 389.386C2005.51 389.49 2005.45 389.583 2005.37 389.646C2005.28 389.709 2005.17 389.736 2005.06 389.722C2004.96 389.707 2004.86 389.652 2004.79 389.569L2004.37 389.018C2004.34 388.976 2004.31 388.929 2004.3 388.878C2004.29 388.827 2004.28 388.774 2004.29 388.721C2004.3 388.669 2004.32 388.619 2004.34 388.574C2004.37 388.528 2004.41 388.489 2004.45 388.457C2004.5 388.426 2004.54 388.403 2004.6 388.39C2004.65 388.377 2004.7 388.375 2004.76 388.383C2004.81 388.39 2004.86 388.408 2004.91 388.436C2004.96 388.463 2005 388.499 2005.03 388.541L2005.45 389.092Z" fill="#808080"/>
<path d="M1998.88 381.752C1998.88 381.668 1998.91 381.587 1998.96 381.519C1999.01 381.451 1999.08 381.4 1999.16 381.373C1999.25 381.347 1999.33 381.346 1999.42 381.371C1999.5 381.396 1999.57 381.446 1999.62 381.513L2003.87 387.035C2003.9 387.077 2003.93 387.124 2003.94 387.175C2003.95 387.226 2003.96 387.279 2003.95 387.331C2003.94 387.384 2003.92 387.434 2003.9 387.479C2003.87 387.524 2003.83 387.564 2003.79 387.596C2003.75 387.627 2003.7 387.65 2003.64 387.663C2003.59 387.676 2003.54 387.678 2003.48 387.67C2003.43 387.663 2003.38 387.645 2003.33 387.617C2003.28 387.59 2003.24 387.554 2003.21 387.512L1998.96 381.99C1998.91 381.921 1998.88 381.838 1998.88 381.752V381.752Z" fill="#808080"/>
<path d="M2009 365.057L2008.99 365.143C2008.68 366.797 2007.85 368.32 2006.63 369.507L2001.95 374.055L2002.82 376.582C2003.26 376.345 2003.77 376.27 2004.27 376.372C2004.76 376.474 2005.2 376.746 2005.5 377.137C2005.81 377.529 2005.96 378.014 2005.92 378.503C2005.89 378.992 2005.67 379.453 2005.31 379.799L2004.27 380.809L2004.57 381.682C2005.02 381.446 2005.53 381.372 2006.02 381.475C2006.52 381.579 2006.95 381.851 2007.26 382.243C2007.56 382.634 2007.71 383.119 2007.67 383.608C2007.64 384.096 2007.42 384.556 2007.06 384.902L2006.03 385.906L2007.48 390.107C2007.5 390.177 2007.51 390.252 2007.49 390.324C2007.47 390.396 2007.43 390.462 2007.38 390.515L2005.56 392.279C2005.52 392.323 2005.47 392.357 2005.41 392.378C2005.32 392.406 2005.23 392.408 2005.15 392.383C2005.07 392.359 2004.99 392.309 2004.94 392.24L1998.71 384.14C1998.65 384.063 1998.62 383.969 1998.63 383.873C1998.63 383.778 1998.68 383.688 1998.75 383.62C1998.79 383.58 1998.84 383.548 1998.89 383.528C1998.95 383.508 1999.01 383.5 1999.07 383.504C1999.12 383.508 1999.18 383.525 1999.23 383.552C1999.28 383.58 1999.33 383.617 1999.36 383.663L2005.31 391.395L2006.62 390.126L2001.3 374.684L1996.24 379.599L1997.71 381.513C1997.77 381.59 1997.8 381.685 1997.79 381.78C1997.79 381.876 1997.74 381.966 1997.67 382.034C1997.63 382.074 1997.58 382.105 1997.53 382.125C1997.47 382.145 1997.41 382.153 1997.35 382.149C1997.3 382.145 1997.24 382.129 1997.19 382.101C1997.13 382.074 1997.09 382.036 1997.05 381.99L1995.65 380.168L1989.76 385.893L1990.32 392.273C1990.32 392.331 1990.31 392.389 1990.29 392.444C1990.27 392.498 1990.24 392.548 1990.2 392.589L1988.76 393.986C1988.72 394.023 1988.68 394.052 1988.63 394.072C1988.58 394.092 1988.52 394.103 1988.47 394.103C1988.42 394.103 1988.36 394.092 1988.31 394.072C1988.26 394.052 1988.22 394.023 1988.18 393.986L1983.33 389.273L1982.51 389.688C1982.22 389.842 1981.89 389.901 1981.56 389.856C1981.24 389.81 1980.93 389.663 1980.7 389.436C1980.47 389.21 1980.32 388.915 1980.27 388.598C1980.22 388.28 1980.28 387.957 1980.44 387.675L1980.87 386.883L1976.07 382.223C1975.99 382.148 1975.95 382.047 1975.95 381.941C1975.95 381.836 1975.99 381.734 1976.07 381.66L1977.51 380.262C1977.55 380.222 1977.6 380.19 1977.66 380.17C1977.71 380.15 1977.77 380.142 1977.83 380.147L1984.35 380.636L1990.24 374.911L1977.81 365.89C1977.77 365.855 1977.73 365.812 1977.7 365.762C1977.67 365.711 1977.65 365.656 1977.65 365.599C1977.65 365.589 1977.65 365.58 1977.65 365.57C1977.65 365.465 1977.69 365.363 1977.77 365.289L1979.59 363.52C1979.64 363.467 1979.71 363.431 1979.79 363.414C1979.86 363.397 1979.94 363.4 1980.01 363.424L1984.33 364.83L1985.37 363.826C1985.72 363.48 1986.2 363.27 1986.7 363.235C1987.2 363.2 1987.7 363.343 1988.11 363.637C1988.51 363.931 1988.79 364.357 1988.9 364.836C1989 365.315 1988.93 365.815 1988.68 366.244L1989.58 366.536L1990.62 365.527C1990.98 365.18 1991.45 364.971 1991.95 364.937C1992.46 364.903 1992.96 365.046 1993.36 365.341C1993.76 365.636 1994.04 366.063 1994.15 366.542C1994.25 367.021 1994.18 367.522 1993.93 367.951L1996.53 368.797L2001.22 364.249C2002.44 363.056 2004.02 362.256 2005.72 361.955L2005.8 361.942C2006.23 361.864 2006.69 361.891 2007.11 362.02C2007.54 362.149 2007.93 362.376 2008.24 362.682C2008.56 362.989 2008.79 363.365 2008.92 363.779C2009.06 364.192 2009.08 364.631 2009 365.057V365.057ZM2004.84 382.459L2005.74 385.061L2006.48 384.338C2006.71 384.119 2006.84 383.825 2006.86 383.515C2006.87 383.204 2006.76 382.901 2006.55 382.664C2006.35 382.427 2006.06 382.275 2005.74 382.236C2005.42 382.198 2005.1 382.278 2004.84 382.459V382.459ZM2003.09 377.36L2003.98 379.964L2004.73 379.236C2004.96 379.016 2005.09 378.721 2005.11 378.41C2005.12 378.099 2005.01 377.795 2004.8 377.558C2004.59 377.322 2004.3 377.17 2003.98 377.133C2003.67 377.096 2003.34 377.177 2003.09 377.36L2003.09 377.36ZM2005.02 369.943L2004.87 369.922C2004.69 369.9 2004.52 369.916 2004.35 369.97C2004.18 370.024 2004.03 370.115 2003.91 370.235L2003.04 371.078L2003.45 371.471L2005.02 369.943ZM2002.87 372.034L2002.46 371.642L2001.34 372.73L2001.75 373.123L2002.87 372.034ZM2001.17 373.686L2000.76 373.294L1999.64 374.382L2000.05 374.775L2001.17 373.686ZM1999.47 375.338L1999.06 374.945L1997.94 376.034L1998.34 376.427L1999.47 375.338ZM1997.76 376.99L1997.36 376.598L1996.24 377.686L1996.64 378.079L1997.76 376.99ZM1996.06 378.642L1995.66 378.249L1994.54 379.338L1994.94 379.731L1996.06 378.642ZM1994.36 380.294L1993.96 379.901L1992.84 380.99L1993.24 381.383L1994.36 380.294ZM1992.66 381.946L1992.26 381.553L1991.42 382.369C1991.28 382.505 1991.18 382.675 1991.13 382.861C1991.07 383.047 1991.07 383.243 1991.12 383.429L1991.13 383.439L1992.66 381.946ZM1988.47 393.141L1989.48 392.156L1988.98 386.403L1984.09 388.887L1988.47 393.141ZM1976.94 381.941L1981.27 386.142L1983.82 381.395L1977.96 380.955L1976.94 381.941ZM1986.89 379.295C1987.08 379.339 1987.27 379.335 1987.46 379.284C1987.65 379.232 1987.82 379.136 1987.95 379.003L1988.79 378.187L1988.41 377.815L1986.89 379.295ZM1988.99 377.252L1989.37 377.624L1990.49 376.535L1990.11 376.163L1988.99 377.252ZM1990.69 375.6L1991.07 375.972L1992.19 374.883L1991.81 374.511L1990.69 375.6ZM1987.75 364.389C1987.51 364.158 1987.19 364.028 1986.85 364.028C1986.51 364.028 1986.19 364.158 1985.95 364.389L1985.2 365.112L1987.88 365.984C1988.06 365.745 1988.14 365.455 1988.12 365.163C1988.09 364.871 1987.96 364.597 1987.75 364.389V364.389ZM1993.37 366.965C1993.37 366.72 1993.3 366.481 1993.16 366.278C1993.02 366.074 1992.82 365.916 1992.59 365.822C1992.36 365.728 1992.1 365.704 1991.85 365.752C1991.61 365.799 1991.38 365.917 1991.2 366.09L1990.45 366.819L1993.13 367.69C1993.29 367.48 1993.37 367.226 1993.37 366.965L1993.37 366.965ZM1979.99 364.258L1978.68 365.527L1990.83 374.341L1995.89 369.426L1979.99 364.258ZM1992.77 374.32L1993.9 373.232L1993.51 372.859L1992.39 373.948L1992.77 374.32ZM1994.48 372.668L1995.6 371.58L1995.21 371.207L1994.09 372.296L1994.48 372.668ZM1996.18 371.016L1997.3 369.928L1996.91 369.555L1995.79 370.644L1996.18 371.016ZM1997.49 368.992L1997.88 369.364L1999 368.276L1998.61 367.903L1997.49 368.992ZM1999.19 367.34L1999.58 367.712L2000.44 366.869C2000.57 366.749 2000.66 366.602 2000.72 366.441C2000.77 366.279 2000.79 366.108 2000.77 365.939L2000.75 365.827L1999.19 367.34ZM2001.8 364.812L2001.48 365.12L2001.58 365.831C2001.62 366.121 2001.59 366.417 2001.49 366.695C2001.4 366.972 2001.24 367.225 2001.03 367.433L1988.53 379.567C1988.29 379.801 1987.99 379.97 1987.66 380.056C1987.33 380.143 1986.98 380.144 1986.65 380.06L1986.21 379.948L1984.77 381.354L1981.17 388.049L1981.16 388.058C1981.09 388.188 1981.06 388.338 1981.08 388.486C1981.1 388.633 1981.17 388.769 1981.28 388.875C1981.39 388.98 1981.53 389.048 1981.68 389.068C1981.83 389.089 1981.98 389.061 1982.12 388.989C1982.12 388.987 1982.13 388.985 1982.13 388.984L1989.02 385.485L1990.46 384.091L1990.33 383.633C1990.29 383.476 1990.27 383.314 1990.27 383.152C1990.27 382.647 1990.47 382.163 1990.84 381.805L2003.33 369.672C2003.54 369.465 2003.8 369.309 2004.09 369.216C2004.38 369.122 2004.68 369.094 2004.98 369.133L2005.75 369.236L2006.05 368.944C2006.68 368.328 2007.2 367.61 2007.58 366.821L2007.01 367.097C2006.55 367.323 2006.02 367.401 2005.51 367.32C2005 367.24 2004.53 367.005 2004.16 366.648C2003.79 366.292 2003.55 365.832 2003.47 365.334C2003.38 364.837 2003.46 364.326 2003.7 363.875L2003.98 363.325C2003.17 363.693 2002.43 364.197 2001.8 364.812L2001.8 364.812ZM2005.94 362.726L2005.87 362.739C2005.61 362.785 2005.36 362.845 2005.11 362.915L2004.43 364.232C2004.28 364.533 2004.22 364.874 2004.28 365.206C2004.33 365.538 2004.49 365.845 2004.74 366.083C2004.99 366.321 2005.3 366.478 2005.64 366.532C2005.98 366.586 2006.34 366.534 2006.65 366.384L2008 365.724C2008.07 365.486 2008.13 365.245 2008.18 364.999L2008.2 364.913C2008.25 364.614 2008.23 364.306 2008.14 364.015C2008.05 363.725 2007.88 363.461 2007.66 363.246C2007.44 363.03 2007.17 362.871 2006.87 362.78C2006.57 362.69 2006.25 362.671 2005.94 362.726L2005.94 362.726Z" fill="#808080"/>
</g>
<circle cx="1511.5" cy="698.5" r="269" stroke="#808080" stroke-dasharray="6.8 6.8"/>
<g filter="url(#filter2_d)">
<circle cx="1283" cy="838" r="19" fill="#7AACFF"/>
<circle cx="1283" cy="838" r="14" fill="#1467FF"/>
<circle cx="1283" cy="838" r="9" fill="white"/>
</g>
<path d="M1286.69 810.302C1286.81 810.298 1286.92 810.249 1287.01 810.167L1288.57 808.659C1288.65 808.576 1288.69 808.466 1288.69 808.353V801.272C1288.69 801.038 1288.52 800.831 1288.27 800.831H1280C1279.88 800.834 1279.76 800.882 1279.68 800.963L1278.12 802.47C1278.08 802.511 1278.05 802.559 1278.03 802.611C1278.01 802.663 1278 802.719 1278 802.774V809.855C1278 810.09 1278.17 810.302 1278.42 810.302H1286.69ZM1283.2 809.454H1281.93V807.854L1283.2 808.443V809.454ZM1287.8 808.178L1287.13 808.832V802.95L1287.8 802.296V808.178ZM1284.32 801.679H1287.19L1286.51 802.315H1283.63L1284.32 801.679ZM1280.18 801.679H1283.06L1282.37 802.315H1279.49L1280.18 801.679ZM1283.27 803.163V803.729H1281.79V803.163H1283.27ZM1278.89 803.163H1280.89V804.16C1280.89 804.395 1281.13 804.577 1281.38 804.577H1283.74C1283.8 804.577 1283.86 804.566 1283.91 804.545C1283.96 804.524 1284.01 804.493 1284.05 804.454C1284.09 804.415 1284.12 804.369 1284.14 804.318C1284.16 804.268 1284.16 804.214 1284.16 804.16V803.163H1286.24V809.454H1284.09V808.173C1284.09 808.093 1284.07 808.015 1284.02 807.947C1283.98 807.878 1283.92 807.824 1283.84 807.789L1281.64 806.803C1281.57 806.773 1281.5 806.76 1281.43 806.764C1281.36 806.769 1281.29 806.791 1281.23 806.83C1281.17 806.869 1281.12 806.923 1281.09 806.985C1281.05 807.048 1281.04 807.118 1281.04 807.187V809.454H1278.89V803.163Z" fill="#1467FF"/>
<g filter="url(#filter3_d)">
<circle cx="1708" cy="515" r="19" fill="#7AACFF"/>
<circle cx="1708" cy="515" r="14" fill="#1467FF"/>
<circle cx="1708" cy="515" r="9" fill="white"/>
</g>
<path d="M1712.74 494.717L1705.95 500.151L1703.38 496.903C1703.25 496.732 1703.05 496.627 1702.85 496.61C1702.64 496.593 1702.43 496.665 1702.28 496.812C1702.12 496.958 1702.02 497.166 1702 497.39C1701.99 497.615 1702.05 497.837 1702.19 498.009L1705.23 501.86C1705.36 502.024 1705.54 502.129 1705.74 502.153C1705.94 502.178 1706.13 502.12 1706.3 501.992L1713.68 496.085C1713.85 495.951 1713.96 495.75 1713.99 495.527C1714.02 495.304 1713.97 495.076 1713.85 494.894C1713.72 494.713 1713.54 494.592 1713.33 494.559C1713.12 494.525 1712.91 494.582 1712.74 494.716V494.717Z" fill="#1467FF"/>
<defs>
<filter id="filter0_d" x="466" y="893" width="66" height="66" filterUnits="userSpaceOnUse" color-interpolation-filters="sRGB">
<feFlood flood-opacity="0" result="BackgroundImageFix"/>
<feColorMatrix in="SourceAlpha" type="matrix" values="0 0 0 0 0 0 0 0 0 0 0 0 0 0 0 0 0 0 127 0"/>
<feOffset dy="14"/>
<feGaussianBlur stdDeviation="7"/>
<feColorMatrix type="matrix" values="0 0 0 0 0.080303 0 0 0 0 0.402479 0 0 0 0 1 0 0 0 0.28 0"/>
<feBlend mode="normal" in2="BackgroundImageFix" result="effect1_dropShadow"/>
<feBlend mode="normal" in="SourceGraphic" in2="effect1_dropShadow" result="shape"/>
</filter>
<filter id="filter1_d" x="1959" y="405" width="66" height="66" filterUnits="userSpaceOnUse" color-interpolation-filters="sRGB">
<feFlood flood-opacity="0" result="BackgroundImageFix"/>
<feColorMatrix in="SourceAlpha" type="matrix" values="0 0 0 0 0 0 0 0 0 0 0 0 0 0 0 0 0 0 127 0"/>
<feOffset dy="14"/>
<feGaussianBlur stdDeviation="7"/>
<feColorMatrix type="matrix" values="0 0 0 0 0.080303 0 0 0 0 0.402479 0 0 0 0 1 0 0 0 0.28 0"/>
<feBlend mode="normal" in2="BackgroundImageFix" result="effect1_dropShadow"/>
<feBlend mode="normal" in="SourceGraphic" in2="effect1_dropShadow" result="shape"/>
</filter>
<filter id="filter2_d" x="1250" y="819" width="66" height="66" filterUnits="userSpaceOnUse" color-interpolation-filters="sRGB">
<feFlood flood-opacity="0" result="BackgroundImageFix"/>
<feColorMatrix in="SourceAlpha" type="matrix" values="0 0 0 0 0 0 0 0 0 0 0 0 0 0 0 0 0 0 127 0"/>
<feOffset dy="14"/>
<feGaussianBlur stdDeviation="7"/>
<feColorMatrix type="matrix" values="0 0 0 0 0.080303 0 0 0 0 0.402479 0 0 0 0 1 0 0 0 0.28 0"/>
<feBlend mode="normal" in2="BackgroundImageFix" result="effect1_dropShadow"/>
<feBlend mode="normal" in="SourceGraphic" in2="effect1_dropShadow" result="shape"/>
</filter>
<filter id="filter3_d" x="1675" y="496" width="66" height="66" filterUnits="userSpaceOnUse" color-interpolation-filters="sRGB">
<feFlood flood-opacity="0" result="BackgroundImageFix"/>
<feColorMatrix in="SourceAlpha" type="matrix" values="0 0 0 0 0 0 0 0 0 0 0 0 0 0 0 0 0 0 127 0"/>
<feOffset dy="14"/>
<feGaussianBlur stdDeviation="7"/>
<feColorMatrix type="matrix" values="0 0 0 0 0.080303 0 0 0 0 0.402479 0 0 0 0 1 0 0 0 0.28 0"/>
<feBlend mode="normal" in2="BackgroundImageFix" result="effect1_dropShadow"/>
<feBlend mode="normal" in="SourceGraphic" in2="effect1_dropShadow" result="shape"/>
</filter>
<linearGradient id="paint0_linear" x1="913.502" y1="914" x2="-3.49883" y2="181.5" gradientUnits="userSpaceOnUse">
<stop stop-color="#808080"/>
<stop offset="0.764737" stop-opacity="0"/>
</linearGradient>
<linearGradient id="paint1_linear" x1="1601.89" y1="522.095" x2="2321.89" y2="251.595" gradientUnits="userSpaceOnUse">
<stop offset="0.231057" stop-color="#808080"/>
<stop offset="0.855301" stop-opacity="0"/>
</linearGradient>
<clipPath id="clip0">
<rect width="34" height="35" fill="white" transform="matrix(-4.37114e-08 -1 -1 4.37114e-08 2010 395)"/>
</clipPath>
</defs>
</svg>
