<svg xmlns="http://www.w3.org/2000/svg" xmlns:xlink="http://www.w3.org/1999/xlink"><defs>
<clipPath id="clip0">
<rect width="30" height="30" fill="white"/>
</clipPath>
<filter id="filter0_d" x="0" y="0" width="48" height="48" filterUnits="userSpaceOnUse" color-interpolation-filters="sRGB"><feFlood flood-opacity="0" result="BackgroundImageFix"/><feColorMatrix in="SourceAlpha" values="0 0 0 0 0 0 0 0 0 0 0 0 0 0 0 0 0 0 127 0"/><feOffset dy="10"/><feGaussianBlur stdDeviation="7"/><feColorMatrix values="0 0 0 0 0 0 0 0 0 0 0 0 0 0 0 0 0 0 0.11 0"/><feBlend in2="BackgroundImageFix" result="effect1_dropShadow"/><feBlend in="SourceGraphic" in2="effect1_dropShadow" result="shape"/></filter></defs><symbol id="arrow-left"><path d="M.292892 8.70711c-.3905235-.39053-.3905235-1.02369 0-1.41422L6.65685.928932c.39053-.390524 1.02369-.390524 1.41422 0 .39052.390528.39052 1.023688 0 1.414218L2.41421 8l5.65686 5.6569c.39052.3905.39052 1.0236 0 1.4142-.39053.3905-1.02369.3905-1.41422 0L.292892 8.70711zM16 9H.999999V7H16v2z"/></symbol><symbol id="arrow-right"><path d="M15.7071 8.70711c.3905-.39053.3905-1.02369 0-1.41422L9.34315.928932c-.39053-.390524-1.02369-.390524-1.41422 0-.39052.390528-.39052 1.023688 0 1.414218L13.5858 8l-5.65687 5.6569c-.39052.3905-.39052 1.0236 0 1.4142.39053.3905 1.02369.3905 1.41422 0l6.36395-6.36399zM0 9h15V7H0v2z"/></symbol><symbol id="facebook" viewBox="0 0 30 30">
<path d="M15 0C6.7157 0 0 6.7157 0 15C0 23.2843 6.7157 30 15 30C23.2843 30 30 23.2843 30 15C30 6.7157 23.2843 0 15 0ZM20.7226 7.63887L18.6479 7.63979C17.021 7.63979 16.7064 8.41289 16.7064 9.54721V12.0485H20.586L20.5841 15.9661H16.7067V26.0197H12.6602V15.9661H9.27744V12.0485H12.6602V9.15928C12.6602 5.80634 14.7087 3.98026 17.6995 3.98026L20.7229 3.98486V7.63887H20.7226Z"/>
</symbol><symbol id="globe" viewBox="0 0 30 30">
<g clip-path="url(#clip0)">
<path d="M15.0053 0.00292985C9.00344 0.00205503 3.57907 3.57962 1.21675 9.09703L1.02978 9.15902L1.10227 9.37648C-2.00808 17.0478 1.68921 25.788 9.36049 28.8983C11.1522 29.6248 13.0675 29.9977 15.0009 29.9967C23.2834 29.9979 29.9987 23.2846 30 15.0021C30.0012 6.71953 23.2879 0.0041171 15.0053 0.00292985ZM26.7687 22.561L25.9986 21.7914V19.9988C25.9995 19.9214 25.9823 19.8449 25.9486 19.7753L23.999 15.8816V14C23.999 13.8329 23.9156 13.6768 23.7765 13.5841L22.2769 12.5843C22.1593 12.5058 22.014 12.4808 21.8769 12.5153L20.0403 12.9742L16.9555 11.6505L16.5311 8.67712L17.7073 7.50137H20.2323L21.0821 8.7786C21.1588 8.89345 21.2798 8.9715 21.416 8.99406L24.4154 9.49395C24.4958 9.50745 24.5781 9.50089 24.6554 9.47496L27.4178 8.55415C29.7347 13.0004 29.4869 18.3481 26.7687 22.561ZM24.7069 4.9289L23.894 5.47079L21.628 5.01739L20.1578 4.52799C20.0678 4.49743 19.971 4.49356 19.8789 4.51699L18.0202 4.98139L17.2054 4.70995L17.8093 3.5022H19.4999C19.5775 3.50226 19.654 3.48433 19.7234 3.44971L21.453 2.58489C22.6442 3.20664 23.7399 3.99597 24.7069 4.9289ZM9.52551 2.11899L10.7253 2.91882C10.7843 2.95806 10.8509 2.98431 10.9207 2.99581L13.3432 3.39972L13.1068 4.10708L11.8445 4.52849C11.7315 4.5661 11.6356 4.64284 11.5741 4.74494L10.1384 7.13744L7.83237 8.52115L4.43308 9.00655C4.18669 9.04136 4.00348 9.25213 4.00317 9.50095V11.0006C4.00317 11.1332 4.0559 11.2603 4.14963 11.3541L5.00296 12.2074V13.0662L2.92339 11.6795L2.16905 9.41647C3.60425 6.13715 6.23476 3.5277 9.52551 2.11899ZM8.10231 18.5091L5.84278 18.0567L5.00296 16.3815V15.2068L6.86557 13.3441L7.55492 14.7234C7.63959 14.8928 7.81287 14.9999 8.00233 14.9998H11.2187L12.5729 17.2568C12.6632 17.4072 12.8258 17.4992 13.0013 17.4993H14.391L14.0411 19.2524L12.1485 21.145C12.0546 21.2387 12.0017 21.3658 12.0015 21.4985V22.7482L10.2019 24.0979C10.076 24.1923 10.0019 24.3405 10.0019 24.4978V26.3035L9.38004 26.0975L8.50223 23.902V18.999C8.50229 18.7614 8.33508 18.5566 8.10231 18.5091ZM6.59962 26.1938C1.88629 22.6577 -0.106979 16.548 1.61416 10.9127L2.02958 12.1584C2.06457 12.2638 2.13368 12.3546 2.22604 12.4163L4.71802 14.0775L4.14963 14.6464C4.0559 14.7401 4.00317 14.8672 4.00317 14.9998V16.4995C4.0031 16.577 4.02104 16.6535 4.05565 16.7229L5.05545 18.7225C5.12468 18.8606 5.25384 18.959 5.40537 18.989L7.50494 19.4084V23.9979C7.50487 24.0614 7.51693 24.1244 7.54043 24.1834L8.54022 26.6829C8.59496 26.8194 8.70706 26.9249 8.84666 26.9713L10.3463 27.4712C10.3965 27.4882 10.4489 27.497 10.5018 27.4972C10.7779 27.4972 11.0017 27.2734 11.0017 26.9973V24.7478L12.8013 23.3981C12.9272 23.3036 13.0013 23.1555 13.0013 22.9981V21.7054L14.8544 19.8523C14.9241 19.7825 14.9716 19.6936 14.9909 19.5968L15.4908 17.0974C15.5449 16.8266 15.3693 16.5633 15.0985 16.5092C15.0664 16.5027 15.0337 16.4995 15.0009 16.4995H13.2842L11.93 14.2425C11.8397 14.0921 11.6771 14.0001 11.5016 14H8.31127L7.45245 12.2769C7.38052 12.133 7.2438 12.0325 7.08502 12.0069C6.92631 11.9795 6.76428 12.0319 6.65161 12.1469L6.00275 12.7933V12.0004C6.00275 11.8678 5.95001 11.7407 5.85628 11.647L5.00296 10.7937V9.93436L8.07332 9.49595C8.13924 9.48639 8.20267 9.46377 8.25978 9.42947L10.7593 7.92978C10.8294 7.88766 10.8881 7.82892 10.9302 7.75881L12.3349 5.4178L13.6592 4.97589C13.8087 4.92684 13.926 4.80955 13.9751 4.65996L14.475 3.16027C14.5616 2.89814 14.4193 2.61539 14.1572 2.52878C14.133 2.52078 14.1082 2.51466 14.0831 2.51041L11.1897 2.02801L10.6813 1.68908C13.8271 0.665167 17.2342 0.791891 20.2953 2.0465L19.382 2.50241H17.5004C17.31 2.50135 17.1356 2.60857 17.0504 2.77885L16.0507 4.77843C15.9275 5.02551 16.0279 5.3257 16.275 5.44886C16.296 5.45936 16.3178 5.46835 16.3401 5.47579L17.8398 5.97569C17.9298 6.00624 18.0266 6.01012 18.1187 5.98668L19.9773 5.52228L21.3391 5.97569C21.3585 5.98268 21.3786 5.98806 21.399 5.99168L23.8985 6.49158C24.0285 6.51807 24.1637 6.49145 24.2739 6.41759L25.4117 5.65875C25.9716 6.28243 26.4749 6.95479 26.9154 7.66783L24.4559 8.48766L21.793 8.04375L20.9131 6.72403C20.8209 6.58575 20.6659 6.50239 20.4997 6.50158H17.5004C17.3678 6.50158 17.2407 6.55431 17.1469 6.64805L15.6472 8.14773C15.5359 8.25902 15.4835 8.4163 15.5058 8.57214L16.0057 12.0714C16.0308 12.2444 16.1446 12.3917 16.3056 12.4598L19.8049 13.9595C19.9051 14.0029 20.017 14.0119 20.1228 13.985L21.9079 13.5386L22.9992 14.2675V15.9996C22.9983 16.077 23.0155 16.1534 23.0492 16.2231L24.9988 20.1167V21.9983C24.9988 22.1309 25.0515 22.258 25.1453 22.3518L26.191 23.3981C21.5531 29.5801 12.7816 30.8318 6.59962 26.1938Z" fill="currentColor"/>
</g>

</symbol><symbol id="instagram" viewBox="0 0 30 30">
<path d="M17.8711 15C17.8711 16.5857 16.5857 17.8711 15 17.8711C13.4143 17.8711 12.1289 16.5857 12.1289 15C12.1289 13.4143 13.4143 12.1289 15 12.1289C16.5857 12.1289 17.8711 13.4143 17.8711 15Z"/>
<path d="M21.7134 9.91991C21.5754 9.54591 21.3552 9.2074 21.0691 8.92953C20.7913 8.64343 20.453 8.42325 20.0788 8.28523C19.7753 8.16736 19.3193 8.02705 18.4796 7.98883C17.5711 7.9474 17.2988 7.93848 14.999 7.93848C12.6989 7.93848 12.4266 7.94717 11.5184 7.9886C10.6786 8.02705 10.2224 8.16736 9.91916 8.28523C9.54494 8.42325 9.20642 8.64343 8.92879 8.92953C8.64268 9.2074 8.4225 9.54568 8.28426 9.91991C8.16638 10.2234 8.02608 10.6796 7.98785 11.5193C7.94643 12.4275 7.9375 12.6999 7.9375 14.9999C7.9375 17.2997 7.94643 17.5721 7.98785 18.4805C8.02608 19.3203 8.16638 19.7762 8.28426 20.0797C8.4225 20.454 8.64246 20.7923 8.92856 21.0701C9.20642 21.3562 9.54471 21.5764 9.91893 21.7144C10.2224 21.8325 10.6786 21.9728 11.5184 22.011C12.4266 22.0525 12.6987 22.0612 14.9987 22.0612C17.299 22.0612 17.5714 22.0525 18.4793 22.011C19.3191 21.9728 19.7753 21.8325 20.0788 21.7144C20.83 21.4247 21.4237 20.8309 21.7134 20.0797C21.8313 19.7762 21.9716 19.3203 22.0101 18.4805C22.0515 17.5721 22.0602 17.2997 22.0602 14.9999C22.0602 12.6999 22.0515 12.4275 22.0101 11.5193C21.9718 10.6796 21.8315 10.2234 21.7134 9.91991ZM14.999 19.4226C12.5561 19.4226 10.5758 17.4426 10.5758 14.9997C10.5758 12.5569 12.5561 10.5768 14.999 10.5768C17.4416 10.5768 19.4219 12.5569 19.4219 14.9997C19.4219 17.4426 17.4416 19.4226 14.999 19.4226ZM19.5967 11.4356C19.0259 11.4356 18.5631 10.9728 18.5631 10.4019C18.5631 9.8311 19.0259 9.3683 19.5967 9.3683C20.1676 9.3683 20.6304 9.8311 20.6304 10.4019C20.6301 10.9728 20.1676 11.4356 19.5967 11.4356Z"/>
<path d="M15 0C6.717 0 0 6.717 0 15C0 23.283 6.717 30 15 30C23.283 30 30 23.283 30 15C30 6.717 23.283 0 15 0ZM23.5613 18.5511C23.5197 19.468 23.3739 20.094 23.161 20.6419C22.7135 21.7989 21.7989 22.7135 20.6419 23.161C20.0942 23.3739 19.468 23.5194 18.5513 23.5613C17.6328 23.6032 17.3394 23.6133 15.0002 23.6133C12.6608 23.6133 12.3676 23.6032 11.4489 23.5613C10.5322 23.5194 9.90601 23.3739 9.35829 23.161C8.78334 22.9447 8.26286 22.6057 7.83257 22.1674C7.39449 21.7374 7.05551 21.2167 6.83922 20.6419C6.62636 20.0942 6.48056 19.468 6.4389 18.5513C6.39656 17.6326 6.38672 17.3392 6.38672 15C6.38672 12.6608 6.39656 12.3674 6.43867 11.4489C6.48033 10.532 6.6259 9.90601 6.83876 9.35806C7.05505 8.78334 7.39426 8.26263 7.83257 7.83257C8.26263 7.39426 8.78334 7.05528 9.35806 6.83899C9.90601 6.62613 10.532 6.48056 11.4489 6.43867C12.3674 6.39679 12.6608 6.38672 15 6.38672C17.3392 6.38672 17.6326 6.39679 18.5511 6.4389C19.468 6.48056 20.094 6.62613 20.6419 6.83876C21.2167 7.05505 21.7374 7.39426 22.1677 7.83257C22.6057 8.26286 22.9449 8.78334 23.161 9.35806C23.3741 9.90601 23.5197 10.532 23.5616 11.4489C23.6034 12.3674 23.6133 12.6608 23.6133 15C23.6133 17.3392 23.6034 17.6326 23.5613 18.5511Z"/>
</symbol><symbol id="login-mobile"><path d="M1.40247 4.8929C2.50882 3.03041 4.19006 1.57756 6.19326.752906c2.0032-.8246535 4.22004-.976509 6.31694-.432721 2.097.543789 3.9606 1.753815 5.3106 3.448035s2.1133 3.781 2.1751 5.94642c.0618 2.16546-.5812 4.29236-1.8323 6.06086-1.2512 1.7684-3.0428 3.0828-5.1053 3.7453-2.0625.6626-4.28433.6374-6.33131-.0716-2.04698-.709-3.80836-2.0636-5.01917-3.8599l1.10949-.7479c1.0488 1.556 2.57451 2.7293 4.34761 3.3435 1.77309.6142 3.69768.6359 5.48418.0621 1.7866-.5739 3.3385-1.7124 4.4222-3.2443 1.0837-1.5318 1.6407-3.3742 1.5872-5.24988-.0536-1.87568-.7148-3.68326-1.8841-5.15079-1.1694-1.46754-2.7837-2.51566-4.6-2.98669-1.8164-.47103-3.73663-.33949-5.4718.37482-1.73517.71432-3.19146 1.97278-4.14978 3.58606L1.40247 4.8929z" fill="#BBD3FF"/><path d="M10.3536 10.3536c.1952-.1953.1952-.51189 0-.70715L7.17157 6.46447c-.19526-.19527-.51184-.19527-.7071 0-.19527.19526-.19527.51184 0 .7071L9.29289 10l-2.82842 2.8284c-.19527.1953-.19527.5119 0 .7071.19526.1953.51184.1953.7071 0l3.18203-3.1819zM0 10.5h10v-1H0v1z" fill="#fff"/></symbol><symbol id="login" viewBox="0 0 31 30"><path d="M2.10371 7.33934c1.65953-2.79372 4.18138-4.973 7.18618-6.20998C12.2947-.107621 15.6199-.335404 18.7653.480278c3.1454.815682 5.9409 2.630722 7.9659 5.172042 2.025 2.54133 3.17 5.67148 3.2627 8.91968.0927 3.2481-.8718 6.4385-2.7485 9.0912-1.8768 2.6527-4.5641 4.6243-7.6579 5.6181-3.0937.9938-6.4265.9561-9.497-.1075-3.07049-1.0635-5.71256-3.0954-7.52876-5.7899l1.66423-1.1218c1.57319 2.334 3.86176 4.094 6.52143 5.0153 2.6596.9212 5.5465.9539 8.2263.093 2.6798-.8608 5.0076-2.5685 6.6332-4.8663 1.6256-2.2978 2.4611-5.0613 2.3808-7.8749-.0803-2.8135-1.0721-5.52486-2.8261-7.72616-1.7541-2.2013-4.1755-3.77349-6.9001-4.48003-2.7245-.70655-5.6048-.50924-8.2076.56223-2.60276 1.07148-4.78719 2.95917-6.22468 5.3791l-1.72551-1.025z" fill="currentColor"/><path d="M15.3536 15.3536c.1952-.1953.1952-.5119 0-.7072l-3.182-3.1819c-.1953-.1953-.5119-.1953-.7071 0-.1953.1952-.1953.5118 0 .7071L14.2929 15l-2.8284 2.8284c-.1953.1953-.1953.5119 0 .7071.1952.1953.5118.1953.7071 0l3.182-3.1819zM0 15.5h15v-1H0v1z" fill="#1467FF"/></symbol><symbol id="question-mark"><g filter="url(#filter0_d)"><circle cx="24" cy="14" r="9.5" stroke="#282828"/></g><path d="M22.8411 15.5467h1.8534v-.32c0-.44.16-.6267.6533-.8934 1.04-.5466 1.84-1.0533 1.84-2.3866 0-1.7734-1.4133-2.77336-3.2533-2.77336-1.8934 0-3.3467 1.07996-3.4267 3.17336h1.92c.08-1.1334.6933-1.4 1.4267-1.4 1 0 1.4133.4666 1.4133 1.0666 0 .5067-.3067.6934-1.04 1.08-1 .5334-1.3867.7867-1.3867 1.76v.6934zm.92 3.28c.7067 0 1.2267-.4534 1.2267-1.1334 0-.68-.52-1.1333-1.2267-1.1333-.6933 0-1.2133.4533-1.2133 1.1333 0 .68.52 1.1334 1.2133 1.1334z" fill="#282828"/></symbol><symbol id="telegram" viewBox="0 0 30 30">
<path d="M15 30C23.2863 30 30 23.2863 30 15C30 6.71375 23.2863 0 15 0C6.71375 0 0 6.71375 0 15C0 23.2863 6.71375 30 15 30ZM6.86375 14.675L21.3263 9.09875C21.9975 8.85625 22.5837 9.2625 22.3662 10.2775L22.3675 10.2762L19.905 21.8775C19.7225 22.7 19.2337 22.9 18.55 22.5125L14.8 19.7487L12.9912 21.4913C12.7912 21.6913 12.6225 21.86 12.235 21.86L12.5013 18.0438L19.4513 11.765C19.7537 11.4987 19.3837 11.3488 18.985 11.6138L10.3963 17.0212L6.69375 15.8663C5.89 15.6112 5.8725 15.0625 6.86375 14.675Z"/>
</symbol><symbol id="tviter" viewBox="0 0 30 30">
<path d="M15 0C6.7157 0 0 6.7157 0 15C0 23.2843 6.7157 30 15 30C23.2843 30 30 23.2843 30 15C30 6.7157 23.2843 0 15 0ZM24.0706 10.9998C24.0776 11.1769 24.0813 11.3543 24.0813 11.5326C24.0813 17.9402 19.2055 24.5678 11.0461 24.5678C8.55192 24.5678 6.12338 23.8561 4.02322 22.5091C3.97933 22.4811 3.96123 22.4268 3.97872 22.378C3.99621 22.3295 4.04563 22.2994 4.09627 22.3053C4.44859 22.3473 4.8089 22.3682 5.16644 22.3682C7.10701 22.3682 8.94414 21.7682 10.498 20.6299C8.6354 20.4727 7.03458 19.2123 6.45882 17.4141C6.44685 17.3767 6.45545 17.3359 6.48123 17.3064C6.50731 17.2769 6.54721 17.264 6.58527 17.2711C7.10148 17.369 7.62629 17.3754 8.13207 17.2932C6.21115 16.6963 4.86107 14.8969 4.86107 12.8483L4.86169 12.7887C4.86261 12.7498 4.88379 12.7142 4.91754 12.6948C4.951 12.6752 4.99274 12.6749 5.0265 12.6939C5.52737 12.972 6.08164 13.1506 6.65033 13.219C5.54639 12.3391 4.89821 11.0053 4.89821 9.57852C4.89821 8.7554 5.11611 7.94639 5.52859 7.23898C5.54701 7.20737 5.57954 7.18711 5.61575 7.18435C5.65228 7.18067 5.68757 7.19662 5.71059 7.22486C7.97003 9.99621 11.2935 11.7026 14.8475 11.922C14.7882 11.6237 14.7582 11.3162 14.7582 11.0059C14.7582 8.4399 16.8457 6.35263 19.4115 6.35263C20.6728 6.35263 21.8919 6.871 22.7656 7.77698C23.7505 7.57627 24.6887 7.21412 25.5554 6.70036C25.595 6.67673 25.6447 6.68041 25.6812 6.70895C25.7168 6.7378 25.7316 6.78568 25.7174 6.82987C25.4237 7.74844 24.851 8.54977 24.0816 9.12829C24.8062 9.00215 25.5094 8.78916 26.1781 8.49238C26.2229 8.47182 26.276 8.4847 26.3082 8.52245C26.3402 8.56051 26.3429 8.61483 26.3153 8.65596C25.7061 9.56777 24.9511 10.3562 24.0706 10.9998Z"/>
</symbol><symbol id="twitter" viewBox="0 0 30 30">
<path d="M15 0C6.7157 0 0 6.7157 0 15C0 23.2843 6.7157 30 15 30C23.2843 30 30 23.2843 30 15C30 6.7157 23.2843 0 15 0ZM24.0706 10.9998C24.0776 11.1769 24.0813 11.3543 24.0813 11.5326C24.0813 17.9402 19.2055 24.5678 11.0461 24.5678C8.55192 24.5678 6.12338 23.8561 4.02322 22.5091C3.97933 22.4811 3.96123 22.4268 3.97872 22.378C3.99621 22.3295 4.04563 22.2994 4.09627 22.3053C4.44859 22.3473 4.8089 22.3682 5.16644 22.3682C7.10701 22.3682 8.94414 21.7682 10.498 20.6299C8.6354 20.4727 7.03458 19.2123 6.45882 17.4141C6.44685 17.3767 6.45545 17.3359 6.48123 17.3064C6.50731 17.2769 6.54721 17.264 6.58527 17.2711C7.10148 17.369 7.62629 17.3754 8.13207 17.2932C6.21115 16.6963 4.86107 14.8969 4.86107 12.8483L4.86169 12.7887C4.86261 12.7498 4.88379 12.7142 4.91754 12.6948C4.951 12.6752 4.99274 12.6749 5.0265 12.6939C5.52737 12.972 6.08164 13.1506 6.65033 13.219C5.54639 12.3391 4.89821 11.0053 4.89821 9.57852C4.89821 8.7554 5.11611 7.94639 5.52859 7.23898C5.54701 7.20737 5.57954 7.18711 5.61575 7.18435C5.65228 7.18067 5.68757 7.19662 5.71059 7.22486C7.97003 9.99621 11.2935 11.7026 14.8475 11.922C14.7882 11.6237 14.7582 11.3162 14.7582 11.0059C14.7582 8.4399 16.8457 6.35263 19.4115 6.35263C20.6728 6.35263 21.8919 6.871 22.7656 7.77698C23.7505 7.57627 24.6887 7.21412 25.5554 6.70036C25.595 6.67673 25.6447 6.68041 25.6812 6.70895C25.7168 6.7378 25.7316 6.78568 25.7174 6.82987C25.4237 7.74844 24.851 8.54977 24.0816 9.12829C24.8062 9.00215 25.5094 8.78916 26.1781 8.49238C26.2229 8.47182 26.276 8.4847 26.3082 8.52245C26.3402 8.56051 26.3429 8.61483 26.3153 8.65596C25.7061 9.56777 24.9511 10.3562 24.0706 10.9998Z"/>
</symbol><symbol id="vk" viewBox="0 0 30 30">
<path d="M15 0C6.71601 0 0 6.7157 0 15C0 23.2843 6.71601 30 15 30C23.284 30 30 23.2843 30 15C30 6.7157 23.284 0 15 0ZM22.6088 16.6223C23.3079 17.3052 24.0476 17.9478 24.6752 18.7013C24.9532 19.0346 25.2153 19.3792 25.4148 19.7669C25.6996 20.3196 25.4425 20.9257 24.9477 20.9586L21.8747 20.958C21.081 21.0236 20.4494 20.7035 19.9169 20.1609C19.4919 19.7285 19.0975 19.2666 18.6881 18.8194C18.5208 18.6359 18.3447 18.4631 18.1347 18.3272C17.7158 18.0546 17.3518 18.1381 17.1118 18.5758C16.8672 19.0211 16.8114 19.5146 16.788 20.0102C16.7546 20.7348 16.5361 20.9242 15.809 20.9583C14.2554 21.031 12.7814 20.7953 11.4114 20.0121C10.2028 19.3212 9.26731 18.3462 8.45217 17.2423C6.86486 15.0902 5.64921 12.7283 4.55693 10.2985C4.3111 9.7513 4.49095 9.45852 5.09463 9.44716C6.0976 9.42783 7.10056 9.43028 8.10353 9.44624C8.51171 9.45268 8.78179 9.68624 8.93862 10.0714C9.48061 11.4049 10.1451 12.6737 10.9777 13.8503C11.1996 14.1637 11.4261 14.4761 11.7486 14.6974C12.1047 14.9417 12.376 14.861 12.5438 14.4635C12.6513 14.2109 12.6976 13.9409 12.7209 13.6702C12.8007 12.743 12.8102 11.8162 12.6721 10.8927C12.5862 10.3148 12.2612 9.94158 11.6851 9.83233C11.3917 9.77678 11.4347 9.66813 11.5774 9.50056C11.8251 9.21084 12.0571 9.03161 12.5208 9.03161L15.9928 9.031C16.5401 9.13841 16.6628 9.38394 16.7371 9.93514L16.7402 13.7936C16.7337 14.0069 16.8473 14.6391 17.2303 14.7787C17.5372 14.88 17.7397 14.6339 17.9233 14.4396C18.7559 13.556 19.3492 12.5131 19.8804 11.4338C20.1149 10.9577 20.3171 10.4652 20.5136 9.97166C20.6596 9.60675 20.8868 9.42721 21.2986 9.43335L24.642 9.43734C24.7406 9.43734 24.8406 9.43826 24.9382 9.45514C25.5017 9.55151 25.6561 9.79396 25.4817 10.3436C25.2074 11.2073 24.6743 11.9266 24.1531 12.6479C23.5946 13.4201 22.9989 14.1652 22.4458 14.9408C21.9376 15.6497 21.9778 16.0066 22.6088 16.6223Z"/>
</symbol></svg>