<svg width="36" height="36" viewBox="0 0 36 36" fill="none" xmlns="http://www.w3.org/2000/svg">
<path d="M29.1903 27.8822C28.8716 27.8823 28.5599 27.7878 28.2948 27.6108C28.0297 27.4337 27.823 27.182 27.701 26.8875C27.5789 26.593 27.5469 26.269 27.609 25.9563C27.6712 25.6436 27.8246 25.3564 28.05 25.1309C28.2754 24.9055 28.5626 24.7519 28.8752 24.6897C29.1879 24.6275 29.512 24.6594 29.8065 24.7813C30.1011 24.9033 30.3528 25.1099 30.5299 25.3749C30.707 25.64 30.8016 25.9516 30.8016 26.2704C30.8012 26.6977 30.6313 27.1073 30.3293 27.4095C30.0272 27.7117 29.6176 27.8816 29.1903 27.8822ZM29.1903 25.6322C29.064 25.6321 28.9404 25.6694 28.8353 25.7396C28.7302 25.8098 28.6482 25.9095 28.5998 26.0262C28.5514 26.143 28.5387 26.2715 28.5633 26.3954C28.588 26.5194 28.6488 26.6332 28.7382 26.7226C28.8275 26.8119 28.9414 26.8728 29.0654 26.8974C29.1893 26.9221 29.3178 26.9094 29.4345 26.861C29.5513 26.8125 29.651 26.7306 29.7212 26.6255C29.7913 26.5204 29.8287 26.3968 29.8286 26.2704C29.8285 26.1012 29.7612 25.9389 29.6415 25.8192C29.5219 25.6996 29.3596 25.6323 29.1903 25.6322Z" fill="#1467FF"/>
<path d="M34.5407 26.7567H32.2105C32.0814 26.7567 31.9577 26.7054 31.8665 26.6142C31.7752 26.523 31.724 26.3992 31.724 26.2702C31.724 26.1412 31.7752 26.0174 31.8665 25.9262C31.9577 25.835 32.0814 25.7837 32.2105 25.7837H34.0543V16.8854L30.068 11.6756H24.3245V25.7837H26.1683C26.2973 25.7837 26.4211 25.835 26.5123 25.9262C26.6035 26.0174 26.6548 26.1412 26.6548 26.2702C26.6548 26.3992 26.6035 26.523 26.5123 26.6142C26.4211 26.7054 26.2973 26.7567 26.1683 26.7567H23.838C23.709 26.7567 23.5853 26.7054 23.4941 26.6142C23.4028 26.523 23.3516 26.3992 23.3516 26.2702V11.1891C23.3516 11.0601 23.4028 10.9364 23.4941 10.8451C23.5853 10.7539 23.709 10.7026 23.838 10.7026H30.3083C30.383 10.7026 30.4567 10.7198 30.5237 10.7529C30.5907 10.786 30.6492 10.834 30.6946 10.8933L34.927 16.4247C34.992 16.5096 35.0272 16.6135 35.0272 16.7205V26.2702C35.0272 26.3992 34.976 26.523 34.8847 26.6142C34.7935 26.7054 34.6698 26.7567 34.5407 26.7567Z" fill="#1467FF"/>
<path d="M23.8375 26.757H11.8797C11.7507 26.757 11.6269 26.7058 11.5357 26.6146C11.4445 26.5233 11.3932 26.3996 11.3932 26.2706C11.3932 26.1415 11.4445 26.0178 11.5357 25.9266C11.6269 25.8353 11.7507 25.7841 11.8797 25.7841H23.351V8.2657H1.94563V25.7841H5.83752C5.96655 25.7841 6.09029 25.8353 6.18152 25.9266C6.27275 26.0178 6.32401 26.1415 6.32401 26.2706C6.32401 26.3996 6.27275 26.5233 6.18152 26.6146C6.09029 26.7058 5.96655 26.757 5.83752 26.757H1.45914C1.33012 26.757 1.20638 26.7058 1.11514 26.6146C1.02391 26.5233 0.972656 26.3996 0.972656 26.2706V7.77921C0.972656 7.65019 1.02391 7.52645 1.11514 7.43521C1.20638 7.34398 1.33012 7.29272 1.45914 7.29272H23.8375C23.9665 7.29272 24.0903 7.34398 24.1815 7.43521C24.2728 7.52645 24.324 7.65019 24.324 7.77921V26.2706C24.324 26.3996 24.2728 26.5233 24.1815 26.6146C24.0903 26.7058 23.9665 26.757 23.8375 26.757Z" fill="#1467FF"/>
<path d="M23.8375 21.4054H1.45914C1.33012 21.4054 1.20638 21.3541 1.11514 21.2629C1.02391 21.1716 0.972656 21.0479 0.972656 20.9189C0.972656 20.7898 1.02391 20.6661 1.11514 20.5749C1.20638 20.4836 1.33012 20.4324 1.45914 20.4324H23.8375C23.9665 20.4324 24.0903 20.4836 24.1815 20.5749C24.2728 20.6661 24.324 20.7898 24.324 20.9189C24.324 21.0479 24.2728 21.1716 24.1815 21.2629C24.0903 21.3541 23.9665 21.4054 23.8375 21.4054Z" fill="#1467FF"/>
<path d="M8.85767 29.7769C8.16415 29.7768 7.48624 29.571 6.90964 29.1857C6.33305 28.8003 5.88368 28.2526 5.61835 27.6118C5.35302 26.9711 5.28364 26.266 5.419 25.5859C5.55436 24.9057 5.88837 24.2809 6.37879 23.7906C6.86922 23.3002 7.49403 22.9663 8.17423 22.831C8.85443 22.6958 9.55946 22.7652 10.2002 23.0306C10.8409 23.2961 11.3885 23.7455 11.7738 24.3222C12.1591 24.8988 12.3647 25.5767 12.3647 26.2703C12.3637 27.2 11.9939 28.0914 11.3364 28.7488C10.6789 29.4062 9.78744 29.776 8.85767 29.7769ZM8.85767 23.7362C8.35661 23.7363 7.86683 23.8849 7.45025 24.1634C7.03367 24.4418 6.70901 24.8375 6.5173 25.3004C6.3256 25.7634 6.27547 26.2728 6.37324 26.7642C6.47102 27.2556 6.71231 27.707 7.06662 28.0613C7.42092 28.4156 7.87232 28.6569 8.36375 28.7547C8.85518 28.8525 9.36457 28.8023 9.8275 28.6106C10.2904 28.4189 10.6861 28.0943 10.9646 27.6777C11.243 27.2611 11.3917 26.7713 11.3918 26.2703C11.391 25.5985 11.1238 24.9544 10.6487 24.4794C10.1736 24.0044 9.52947 23.7373 8.85767 23.7366V23.7362Z" fill="#1467FF"/>
<path d="M8.85704 27.8308C8.54839 27.8307 8.24671 27.7391 7.99012 27.5675C7.73354 27.396 7.53358 27.1522 7.41553 26.867C7.29749 26.5818 7.26665 26.2681 7.32692 25.9654C7.3872 25.6627 7.53587 25.3846 7.75415 25.1664C7.97243 24.9482 8.25051 24.7996 8.55324 24.7394C8.85596 24.6792 9.16973 24.7102 9.45488 24.8283C9.74002 24.9465 9.98373 25.1465 10.1552 25.4031C10.3267 25.6598 10.4182 25.9615 10.4182 26.2701C10.4177 26.684 10.253 27.0807 9.96034 27.3733C9.66766 27.6659 9.27088 27.8304 8.85704 27.8308ZM8.85704 25.682C8.74085 25.6821 8.6273 25.7166 8.53073 25.7812C8.43416 25.8458 8.35891 25.9376 8.31449 26.045C8.27007 26.1523 8.25848 26.2705 8.28117 26.3844C8.30386 26.4984 8.35982 26.603 8.44198 26.6852C8.52414 26.7673 8.62881 26.8233 8.74276 26.846C8.85671 26.8687 8.97483 26.8571 9.0822 26.8127C9.18956 26.7683 9.28135 26.693 9.34596 26.5964C9.41057 26.4999 9.44511 26.3863 9.4452 26.2701C9.44495 26.1143 9.38288 25.9649 9.27262 25.8547C9.16236 25.7445 9.01291 25.6826 8.85704 25.6824V25.682Z" fill="#1467FF"/>
<path d="M29.1902 29.7769C28.4966 29.7769 27.8187 29.5712 27.242 29.1859C26.6654 28.8006 26.2159 28.2529 25.9505 27.6122C25.6851 26.9714 25.6157 26.2664 25.751 25.5862C25.8863 24.906 26.2202 24.2811 26.7107 23.7907C27.2011 23.3003 27.8259 22.9664 28.5061 22.8311C29.1863 22.6957 29.8914 22.7652 30.5321 23.0306C31.1728 23.296 31.7205 23.7455 32.1058 24.3221C32.4911 24.8988 32.6968 25.5767 32.6968 26.2703C32.6957 27.2 32.326 28.0913 31.6686 28.7487C31.0112 29.4061 30.1199 29.7758 29.1902 29.7769ZM29.1902 23.7362C28.6891 23.7362 28.1993 23.8847 27.7826 24.1631C27.366 24.4415 27.0413 24.8372 26.8495 25.3001C26.6577 25.763 26.6075 26.2724 26.7052 26.7639C26.8029 27.2553 27.0442 27.7068 27.3985 28.0611C27.7528 28.4155 28.2042 28.6568 28.6956 28.7547C29.187 28.8525 29.6965 28.8024 30.1594 28.6107C30.6224 28.419 31.0181 28.0943 31.2966 27.6777C31.575 27.2611 31.7237 26.7713 31.7238 26.2703C31.723 25.5985 31.4559 24.9546 30.9809 24.4796C30.5059 24.0046 29.8619 23.7374 29.1902 23.7366V23.7362Z" fill="#1467FF"/>
<path d="M31.7057 19.9456H26.2716C26.1426 19.9456 26.0189 19.8943 25.9276 19.8031C25.8364 19.7119 25.7852 19.5881 25.7852 19.4591V14.0251C25.7852 13.896 25.8364 13.7723 25.9276 13.6811C26.0189 13.5898 26.1426 13.5386 26.2716 13.5386H29.6333C29.7081 13.5386 29.782 13.5559 29.8491 13.5892C29.9161 13.6224 29.9746 13.6707 30.02 13.7303L32.0924 16.4473C32.1571 16.532 32.1921 16.6355 32.1922 16.7421V19.4591C32.1922 19.5881 32.1409 19.7119 32.0497 19.8031C31.9585 19.8943 31.8347 19.9456 31.7057 19.9456ZM26.7581 18.9726H31.2192V16.9065L29.3925 14.5115H26.7581V18.9726Z" fill="#1467FF"/>
</svg>
