<svg width="138" height="25" viewBox="0 0 138 25" fill="none" xmlns="http://www.w3.org/2000/svg">
<path d="M6.1 3C9.02 3 11.26 3.56 12.82 4.68C14.4 5.78 15.19 7.43 15.19 9.63C15.19 10.83 14.97 11.86 14.53 12.72C14.11 13.56 13.49 14.25 12.67 14.79C11.87 15.31 10.89 15.69 9.73 15.93C8.57 16.17 7.26 16.29 5.8 16.29H3.49V24H0.58V3.51C1.4 3.31 2.31 3.18 3.31 3.12C4.33 3.04 5.26 3 6.1 3ZM6.34 5.55C5.1 5.55 4.15 5.58 3.49 5.64V13.8H5.68C6.68 13.8 7.58 13.74 8.38 13.62C9.18 13.48 9.85 13.26 10.39 12.96C10.95 12.64 11.38 12.21 11.68 11.67C11.98 11.13 12.13 10.44 12.13 9.6C12.13 8.8 11.97 8.14 11.65 7.62C11.35 7.1 10.93 6.69 10.39 6.39C9.87 6.07 9.26 5.85 8.56 5.73C7.86 5.61 7.12 5.55 6.34 5.55ZM24.412 8.07C24.652 8.07 24.922 8.09 25.222 8.13C25.542 8.15 25.852 8.19 26.152 8.25C26.452 8.29 26.722 8.34 26.962 8.4C27.222 8.44 27.412 8.48 27.532 8.52L27.052 10.95C26.832 10.87 26.462 10.78 25.942 10.68C25.442 10.56 24.792 10.5 23.992 10.5C23.472 10.5 22.952 10.56 22.432 10.68C21.932 10.78 21.602 10.85 21.442 10.89V24H18.652V9.06C19.312 8.82 20.132 8.6 21.112 8.4C22.092 8.18 23.192 8.07 24.412 8.07ZM43.9942 16.2C43.9942 17.44 43.8142 18.56 43.4542 19.56C43.0942 20.56 42.5842 21.42 41.9242 22.14C41.2842 22.86 40.5142 23.42 39.6142 23.82C38.7142 24.2 37.7342 24.39 36.6742 24.39C35.6142 24.39 34.6342 24.2 33.7342 23.82C32.8342 23.42 32.0542 22.86 31.3942 22.14C30.7542 21.42 30.2542 20.56 29.8942 19.56C29.5342 18.56 29.3542 17.44 29.3542 16.2C29.3542 14.98 29.5342 13.87 29.8942 12.87C30.2542 11.85 30.7542 10.98 31.3942 10.26C32.0542 9.54 32.8342 8.99 33.7342 8.61C34.6342 8.21 35.6142 8.01 36.6742 8.01C37.7342 8.01 38.7142 8.21 39.6142 8.61C40.5142 8.99 41.2842 9.54 41.9242 10.26C42.5842 10.98 43.0942 11.85 43.4542 12.87C43.8142 13.87 43.9942 14.98 43.9942 16.2ZM41.0842 16.2C41.0842 14.44 40.6842 13.05 39.8842 12.03C39.1042 10.99 38.0342 10.47 36.6742 10.47C35.3142 10.47 34.2342 10.99 33.4342 12.03C32.6542 13.05 32.2642 14.44 32.2642 16.2C32.2642 17.96 32.6542 19.36 33.4342 20.4C34.2342 21.42 35.3142 21.93 36.6742 21.93C38.0342 21.93 39.1042 21.42 39.8842 20.4C40.6842 19.36 41.0842 17.96 41.0842 16.2ZM51.5495 21.99C52.6895 21.99 53.5295 21.84 54.0695 21.54C54.6295 21.24 54.9095 20.76 54.9095 20.1C54.9095 19.42 54.6395 18.88 54.0995 18.48C53.5595 18.08 52.6695 17.63 51.4295 17.13C50.8295 16.89 50.2495 16.65 49.6895 16.41C49.1495 16.15 48.6795 15.85 48.2795 15.51C47.8795 15.17 47.5595 14.76 47.3195 14.28C47.0795 13.8 46.9595 13.21 46.9595 12.51C46.9595 11.13 47.4695 10.04 48.4895 9.24C49.5095 8.42 50.8995 8.01 52.6595 8.01C53.0995 8.01 53.5395 8.04 53.9795 8.1C54.4195 8.14 54.8295 8.2 55.2095 8.28C55.5895 8.34 55.9195 8.41 56.1995 8.49C56.4995 8.57 56.7295 8.64 56.8895 8.7L56.3795 11.1C56.0795 10.94 55.6095 10.78 54.9695 10.62C54.3295 10.44 53.5595 10.35 52.6595 10.35C51.8795 10.35 51.1995 10.51 50.6195 10.83C50.0395 11.13 49.7495 11.61 49.7495 12.27C49.7495 12.61 49.8095 12.91 49.9295 13.17C50.0695 13.43 50.2695 13.67 50.5295 13.89C50.8095 14.09 51.1495 14.28 51.5495 14.46C51.9495 14.64 52.4295 14.83 52.9895 15.03C53.7295 15.31 54.3895 15.59 54.9695 15.87C55.5495 16.13 56.0395 16.44 56.4395 16.8C56.8595 17.16 57.1795 17.6 57.3995 18.12C57.6195 18.62 57.7295 19.24 57.7295 19.98C57.7295 21.42 57.1895 22.51 56.1095 23.25C55.0495 23.99 53.5295 24.36 51.5495 24.36C50.1695 24.36 49.0895 24.24 48.3095 24C47.5295 23.78 46.9995 23.61 46.7195 23.49L47.2295 21.09C47.5495 21.21 48.0595 21.39 48.7595 21.63C49.4595 21.87 50.3895 21.99 51.5495 21.99ZM63.9182 8.4H69.8282V10.74H63.9182V17.94C63.9182 18.72 63.9782 19.37 64.0982 19.89C64.2182 20.39 64.3982 20.79 64.6382 21.09C64.8782 21.37 65.1782 21.57 65.5382 21.69C65.8982 21.81 66.3182 21.87 66.7982 21.87C67.6382 21.87 68.3082 21.78 68.8082 21.6C69.3282 21.4 69.6882 21.26 69.8882 21.18L70.4282 23.49C70.1482 23.63 69.6582 23.8 68.9582 24C68.2582 24.22 67.4582 24.33 66.5582 24.33C65.4982 24.33 64.6182 24.2 63.9182 23.94C63.2382 23.66 62.6882 23.25 62.2682 22.71C61.8482 22.17 61.5482 21.51 61.3682 20.73C61.2082 19.93 61.1282 19.01 61.1282 17.97V4.05L63.9182 3.57V8.4ZM86.7384 16.2C86.7384 17.44 86.5584 18.56 86.1984 19.56C85.8384 20.56 85.3284 21.42 84.6684 22.14C84.0284 22.86 83.2584 23.42 82.3584 23.82C81.4584 24.2 80.4784 24.39 79.4184 24.39C78.3584 24.39 77.3784 24.2 76.4784 23.82C75.5784 23.42 74.7984 22.86 74.1384 22.14C73.4984 21.42 72.9984 20.56 72.6384 19.56C72.2784 18.56 72.0984 17.44 72.0984 16.2C72.0984 14.98 72.2784 13.87 72.6384 12.87C72.9984 11.85 73.4984 10.98 74.1384 10.26C74.7984 9.54 75.5784 8.99 76.4784 8.61C77.3784 8.21 78.3584 8.01 79.4184 8.01C80.4784 8.01 81.4584 8.21 82.3584 8.61C83.2584 8.99 84.0284 9.54 84.6684 10.26C85.3284 10.98 85.8384 11.85 86.1984 12.87C86.5584 13.87 86.7384 14.98 86.7384 16.2ZM83.8284 16.2C83.8284 14.44 83.4284 13.05 82.6284 12.03C81.8484 10.99 80.7784 10.47 79.4184 10.47C78.0584 10.47 76.9784 10.99 76.1784 12.03C75.3984 13.05 75.0084 14.44 75.0084 16.2C75.0084 17.96 75.3984 19.36 76.1784 20.4C76.9784 21.42 78.0584 21.93 79.4184 21.93C80.7784 21.93 81.8484 21.42 82.6284 20.4C83.4284 19.36 83.8284 17.96 83.8284 16.2ZM93.4537 9.09C93.7937 8.87 94.3037 8.64 94.9837 8.4C95.6837 8.16 96.4837 8.04 97.3837 8.04C98.5037 8.04 99.4937 8.24 100.354 8.64C101.234 9.04 101.974 9.6 102.574 10.32C103.174 11.04 103.624 11.9 103.924 12.9C104.244 13.9 104.404 15 104.404 16.2C104.404 17.46 104.214 18.6 103.834 19.62C103.474 20.62 102.954 21.47 102.274 22.17C101.594 22.87 100.774 23.41 99.8137 23.79C98.8537 24.17 97.7737 24.36 96.5737 24.36C95.2737 24.36 94.1237 24.27 93.1237 24.09C92.1237 23.91 91.3037 23.73 90.6637 23.55V1.2L93.4537 0.719999V9.09ZM93.4537 21.57C93.7337 21.65 94.1237 21.73 94.6237 21.81C95.1437 21.87 95.7837 21.9 96.5437 21.9C98.0437 21.9 99.2437 21.41 100.144 20.43C101.044 19.43 101.494 18.02 101.494 16.2C101.494 15.4 101.414 14.65 101.254 13.95C101.094 13.25 100.834 12.65 100.474 12.15C100.114 11.63 99.6437 11.23 99.0637 10.95C98.5037 10.65 97.8237 10.5 97.0237 10.5C96.2637 10.5 95.5637 10.63 94.9237 10.89C94.2837 11.15 93.7937 11.42 93.4537 11.7V21.57ZM122.1 16.2C122.1 17.44 121.92 18.56 121.56 19.56C121.2 20.56 120.69 21.42 120.03 22.14C119.39 22.86 118.62 23.42 117.72 23.82C116.82 24.2 115.84 24.39 114.78 24.39C113.72 24.39 112.74 24.2 111.84 23.82C110.94 23.42 110.16 22.86 109.5 22.14C108.86 21.42 108.36 20.56 108 19.56C107.64 18.56 107.46 17.44 107.46 16.2C107.46 14.98 107.64 13.87 108 12.87C108.36 11.85 108.86 10.98 109.5 10.26C110.16 9.54 110.94 8.99 111.84 8.61C112.74 8.21 113.72 8.01 114.78 8.01C115.84 8.01 116.82 8.21 117.72 8.61C118.62 8.99 119.39 9.54 120.03 10.26C120.69 10.98 121.2 11.85 121.56 12.87C121.92 13.87 122.1 14.98 122.1 16.2ZM119.19 16.2C119.19 14.44 118.79 13.05 117.99 12.03C117.21 10.99 116.14 10.47 114.78 10.47C113.42 10.47 112.34 10.99 111.54 12.03C110.76 13.05 110.37 14.44 110.37 16.2C110.37 17.96 110.76 19.36 111.54 20.4C112.34 21.42 113.42 21.93 114.78 21.93C116.14 21.93 117.21 21.42 117.99 20.4C118.79 19.36 119.19 17.96 119.19 16.2ZM134.857 24C134.637 23.56 134.367 23.07 134.047 22.53C133.727 21.99 133.377 21.44 132.997 20.88C132.617 20.3 132.227 19.73 131.827 19.17C131.427 18.61 131.037 18.08 130.657 17.58C130.277 18.08 129.887 18.62 129.487 19.2C129.087 19.76 128.697 20.33 128.317 20.91C127.957 21.47 127.617 22.02 127.297 22.56C126.977 23.1 126.707 23.58 126.487 24H123.607C124.307 22.64 125.137 21.26 126.097 19.86C127.077 18.44 128.047 17.09 129.007 15.81L123.847 8.4H126.997L130.717 13.86L134.467 8.4H137.437L132.397 15.63C133.357 16.93 134.337 18.31 135.337 19.77C136.357 21.21 137.217 22.62 137.917 24H134.857Z" fill="white"/>
</svg>
