<svg width="2437" height="1280" viewBox="0 0 2437 1280" fill="none" xmlns="http://www.w3.org/2000/svg">
<path d="M238.001 204C58.9437 367.667 550.001 678.5 550.001 514C550.001 349.5 290.004 673.043 409.501 845.5C528.999 1017.96 970.002 937 1281.5 838" stroke="url(#paint0_linear)" stroke-dasharray="6.8 6.8"/>
<path d="M2436.39 232.094C2213.89 200.594 1765.8 533.051 1881.89 649.594C1997.99 766.138 2168.39 522.763 1829.39 460.594C1490.39 398.426 1916.89 260.094 1705.39 514.094" stroke="url(#paint1_linear)" stroke-dasharray="6.8 6.8"/>
<g filter="url(#filter0_d)">
<circle cx="498" cy="911" r="19" fill="#DDEAFF"/>
<circle cx="498" cy="911" r="14" fill="#BBD3FF"/>
<circle cx="498" cy="911" r="9" fill="#BBD3FF"/>
</g>
<g filter="url(#filter1_d)">
<circle cx="1991" cy="423" r="19" fill="#DDEAFF"/>
<circle cx="1991" cy="423" r="14" fill="#BBD3FF"/>
<circle cx="1991" cy="423" r="9" fill="#BBD3FF"/>
</g>
<path d="M518.111 839.035C518.208 838.906 518.248 838.744 518.224 838.585C518.2 838.427 518.113 838.284 517.982 838.187C517.851 838.091 517.686 838.05 517.524 838.072C517.362 838.094 517.215 838.178 517.116 838.306L516.475 839.148C516.425 839.212 516.389 839.285 516.368 839.363C516.347 839.441 516.342 839.522 516.353 839.602C516.365 839.682 516.392 839.758 516.434 839.828C516.476 839.897 516.531 839.958 516.597 840.006C516.663 840.054 516.737 840.089 516.817 840.109C516.897 840.128 516.979 840.132 517.061 840.12C517.142 840.108 517.22 840.081 517.29 840.039C517.36 839.997 517.421 839.943 517.47 839.878L518.111 839.035Z" fill="#808080"/>
<path d="M508.162 850.263C508.162 850.391 508.203 850.516 508.279 850.62C508.355 850.724 508.463 850.801 508.587 850.842C508.711 850.882 508.845 850.883 508.969 850.845C509.094 850.807 509.203 850.731 509.281 850.628L515.713 842.183C515.762 842.119 515.799 842.046 515.82 841.968C515.84 841.89 515.845 841.809 515.834 841.729C515.823 841.649 515.795 841.573 515.753 841.503C515.712 841.434 515.656 841.374 515.591 841.325C515.525 841.277 515.45 841.242 515.37 841.223C515.291 841.203 515.208 841.199 515.127 841.211C515.046 841.223 514.968 841.25 514.897 841.292C514.827 841.334 514.766 841.389 514.718 841.454L508.286 849.898C508.205 850.003 508.162 850.131 508.162 850.263V850.263Z" fill="#808080"/>
<path d="M523.49 875.795L523.465 875.664C522.996 873.134 521.75 870.805 519.894 868.989L512.805 862.034L514.124 858.168C514.792 858.532 515.572 858.646 516.32 858.49C517.067 858.334 517.732 857.918 518.192 857.319C518.652 856.72 518.876 855.978 518.823 855.23C518.769 854.482 518.442 853.778 517.902 853.248L516.328 851.704L516.784 850.369C517.453 850.73 518.232 850.842 518.979 850.685C519.725 850.527 520.389 850.11 520.847 849.511C521.305 848.912 521.528 848.171 521.474 847.423C521.42 846.676 521.093 845.973 520.553 845.444L518.989 843.909L521.18 837.484C521.217 837.377 521.222 837.261 521.196 837.151C521.169 837.041 521.112 836.94 521.03 836.86L518.281 834.162C518.214 834.095 518.133 834.043 518.043 834.011C517.918 833.967 517.782 833.964 517.654 834.002C517.527 834.039 517.416 834.116 517.336 834.221L507.901 846.609C507.811 846.726 507.768 846.871 507.779 847.018C507.789 847.164 507.853 847.301 507.959 847.405C508.022 847.467 508.098 847.514 508.181 847.545C508.265 847.575 508.354 847.588 508.443 847.582C508.531 847.575 508.618 847.55 508.696 847.509C508.774 847.467 508.842 847.409 508.896 847.339L517.901 835.514L519.88 837.455L511.823 861.071L504.162 853.554L506.392 850.627C506.481 850.509 506.525 850.364 506.514 850.218C506.503 850.072 506.439 849.935 506.334 849.831C506.271 849.769 506.195 849.722 506.111 849.691C506.028 849.66 505.939 849.648 505.85 849.654C505.761 849.66 505.675 849.685 505.597 849.727C505.518 849.769 505.45 849.827 505.397 849.897L503.275 852.684L494.352 843.929L495.195 834.17C495.202 834.082 495.19 833.993 495.159 833.91C495.128 833.826 495.079 833.751 495.015 833.688L492.837 831.551C492.779 831.494 492.711 831.45 492.635 831.419C492.56 831.388 492.479 831.373 492.398 831.373C492.316 831.373 492.235 831.388 492.16 831.419C492.084 831.45 492.016 831.494 491.958 831.551L484.612 838.758L483.376 838.125C482.938 837.889 482.434 837.799 481.939 837.868C481.444 837.937 480.985 838.162 480.631 838.509C480.278 838.856 480.048 839.306 479.978 839.792C479.907 840.277 479.999 840.772 480.24 841.202L480.886 842.415L473.623 849.541C473.506 849.655 473.441 849.81 473.441 849.972C473.441 850.134 473.506 850.289 473.623 850.403L475.801 852.54C475.864 852.602 475.94 852.65 476.024 852.681C476.108 852.711 476.198 852.723 476.287 852.717L486.154 851.969L495.078 860.725L476.26 874.522C476.189 874.574 476.13 874.641 476.087 874.718C476.044 874.794 476.019 874.879 476.012 874.966C476.011 874.981 476.011 874.995 476.011 875.01C476.011 875.172 476.076 875.327 476.193 875.441L478.95 878.146C479.032 878.226 479.135 878.283 479.247 878.308C479.359 878.334 479.477 878.329 479.587 878.293L486.135 876.143L487.7 877.678C488.239 878.208 488.956 878.529 489.718 878.582C490.479 878.635 491.235 878.416 491.846 877.967C492.456 877.517 492.881 876.866 493.042 876.133C493.202 875.401 493.088 874.636 492.72 873.98L494.081 873.533L495.654 875.077C496.195 875.606 496.912 875.927 497.674 875.979C498.437 876.031 499.193 875.811 499.803 875.36C500.413 874.909 500.837 874.257 500.996 873.524C501.156 872.791 501.04 872.026 500.67 871.37L504.609 870.076L511.698 877.031C513.556 878.856 515.938 880.08 518.525 880.539L518.634 880.559C519.299 880.678 519.983 880.638 520.627 880.44C521.272 880.243 521.859 879.895 522.336 879.427C522.814 878.958 523.168 878.383 523.369 877.75C523.57 877.117 523.611 876.446 523.49 875.795V875.795ZM517.19 849.181L518.548 845.2L519.675 846.306C520.017 846.642 520.219 847.091 520.238 847.566C520.258 848.04 520.096 848.505 519.783 848.867C519.47 849.229 519.029 849.463 518.549 849.521C518.068 849.579 517.583 849.458 517.19 849.181V849.181ZM514.529 856.978L515.888 852.996L517.024 854.11C517.367 854.446 517.568 854.897 517.588 855.373C517.607 855.848 517.443 856.313 517.128 856.675C516.813 857.038 516.371 857.27 515.889 857.326C515.408 857.382 514.922 857.258 514.53 856.978L514.529 856.978ZM517.457 868.323L517.227 868.354C516.964 868.389 516.697 868.364 516.445 868.281C516.194 868.198 515.965 868.059 515.777 867.876L514.463 866.587L515.076 865.986L517.457 868.323ZM514.197 865.124L513.585 865.724L511.888 864.06L512.5 863.459L514.197 865.124ZM511.622 862.597L511.01 863.198L509.313 861.533L509.926 860.933L511.622 862.597ZM509.047 860.071L508.435 860.672L506.738 859.007L507.35 858.407L509.047 860.071ZM506.472 857.544L505.86 858.145L504.163 856.48L504.775 855.88L506.472 857.544ZM503.897 855.018L503.285 855.619L501.588 853.954L502.2 853.353L503.897 855.018ZM501.322 852.491L500.71 853.092L499.013 851.427L499.625 850.827L501.322 852.491ZM498.747 849.965L498.134 850.565L496.863 849.318C496.651 849.109 496.498 848.85 496.42 848.565C496.342 848.281 496.34 847.981 496.416 847.696L496.42 847.682L498.747 849.965ZM492.398 832.844L493.933 834.35L493.173 843.148L485.766 839.35L492.398 832.844ZM474.94 849.972L481.488 843.547L485.356 850.807L476.477 851.48L474.94 849.972ZM490 854.02C490.286 853.953 490.585 853.959 490.868 854.037C491.15 854.115 491.408 854.263 491.616 854.466L492.888 855.714L492.307 856.283L490 854.02ZM493.186 857.145L493.766 856.575L495.463 858.24L494.882 858.809L493.186 857.145ZM495.761 859.671L496.341 859.102L498.038 860.766L497.457 861.336L495.761 859.671ZM491.306 876.816C490.944 877.17 490.453 877.369 489.942 877.369C489.431 877.369 488.94 877.17 488.578 876.816L487.451 875.71L491.508 874.378C491.774 874.742 491.899 875.187 491.862 875.633C491.825 876.08 491.628 876.499 491.306 876.816V876.816ZM499.824 872.877C499.824 873.251 499.711 873.617 499.499 873.928C499.287 874.239 498.986 874.482 498.634 874.625C498.281 874.768 497.894 874.806 497.52 874.733C497.145 874.66 496.802 874.479 496.532 874.215L495.397 873.101L499.456 871.768C499.696 872.09 499.825 872.478 499.824 872.877L499.824 872.877ZM479.557 877.018L477.578 875.077L495.966 861.596L503.627 869.113L479.557 877.018ZM498.916 861.628L500.613 863.293L500.033 863.862L498.336 862.198L498.916 861.628ZM501.492 864.155L503.188 865.819L502.608 866.389L500.911 864.724L501.492 864.155ZM504.067 866.681L505.764 868.346L505.183 868.915L503.486 867.251L504.067 866.681ZM506.061 869.777L506.642 869.208L508.339 870.872L507.758 871.442L506.061 869.777ZM508.637 872.304L509.217 871.734L510.531 873.023C510.718 873.208 510.859 873.432 510.944 873.679C511.028 873.926 511.054 874.188 511.018 874.446L510.994 874.617L508.637 872.304ZM512.576 876.169L512.096 875.699L512.249 874.612C512.31 874.168 512.266 873.715 512.12 873.291C511.975 872.866 511.731 872.479 511.409 872.161L492.495 853.604C492.128 853.246 491.673 852.988 491.173 852.855C490.674 852.723 490.148 852.721 489.647 852.849L488.983 853.021L486.791 850.871L481.337 840.631L481.329 840.617C481.217 840.418 481.174 840.189 481.206 839.963C481.238 839.738 481.343 839.529 481.507 839.368C481.671 839.207 481.884 839.104 482.114 839.072C482.343 839.041 482.577 839.084 482.78 839.194C482.785 839.196 482.79 839.199 482.794 839.201L493.231 844.553L495.404 846.685L495.216 847.385C495.151 847.625 495.119 847.873 495.119 848.121C495.118 848.893 495.43 849.633 495.985 850.18L514.899 868.737C515.223 869.053 515.617 869.292 516.05 869.435C516.483 869.578 516.944 869.621 517.397 869.561L518.56 869.404L519.015 869.851C519.976 870.792 520.761 871.891 521.336 873.098L520.476 872.676C519.774 872.33 518.978 872.211 518.202 872.334C517.427 872.457 516.71 872.817 516.154 873.362C515.599 873.907 515.232 874.61 515.106 875.371C514.981 876.132 515.103 876.913 515.455 877.602L515.884 878.444C514.654 877.881 513.535 877.111 512.576 876.169L512.576 876.169ZM518.858 879.36L518.749 879.34C518.357 879.27 517.972 879.179 517.593 879.071L516.566 877.057C516.331 876.596 516.251 876.075 516.335 875.567C516.419 875.059 516.664 874.59 517.035 874.226C517.406 873.862 517.884 873.622 518.402 873.539C518.92 873.457 519.451 873.536 519.92 873.766L521.976 874.775C522.082 875.138 522.173 875.508 522.243 875.884L522.268 876.015C522.353 876.473 522.324 876.944 522.183 877.388C522.042 877.833 521.793 878.237 521.458 878.566C521.122 878.895 520.711 879.139 520.258 879.277C519.805 879.416 519.325 879.444 518.858 879.36L518.858 879.36Z" fill="#808080"/>
<g clip-path="url(#clip0)">
<path d="M2004.45 388.092C2004.52 388.177 2004.54 388.282 2004.53 388.386C2004.51 388.49 2004.45 388.583 2004.37 388.646C2004.28 388.709 2004.17 388.736 2004.06 388.722C2003.96 388.707 2003.86 388.652 2003.79 388.569L2003.37 388.018C2003.34 387.976 2003.31 387.929 2003.3 387.878C2003.29 387.827 2003.28 387.774 2003.29 387.721C2003.3 387.669 2003.32 387.619 2003.34 387.574C2003.37 387.528 2003.41 387.489 2003.45 387.457C2003.5 387.426 2003.54 387.403 2003.6 387.39C2003.65 387.377 2003.7 387.375 2003.76 387.383C2003.81 387.39 2003.86 387.408 2003.91 387.436C2003.96 387.463 2004 387.499 2004.03 387.541L2004.45 388.092Z" fill="#808080"/>
<path d="M1997.88 380.752C1997.88 380.668 1997.91 380.587 1997.96 380.519C1998.01 380.451 1998.08 380.4 1998.16 380.373C1998.25 380.347 1998.33 380.346 1998.42 380.371C1998.5 380.396 1998.57 380.446 1998.62 380.513L2002.87 386.035C2002.9 386.077 2002.93 386.124 2002.94 386.175C2002.95 386.226 2002.96 386.279 2002.95 386.331C2002.94 386.384 2002.92 386.434 2002.9 386.479C2002.87 386.524 2002.83 386.564 2002.79 386.596C2002.75 386.627 2002.7 386.65 2002.64 386.663C2002.59 386.676 2002.54 386.678 2002.48 386.67C2002.43 386.663 2002.38 386.645 2002.33 386.617C2002.28 386.59 2002.24 386.554 2002.21 386.512L1997.96 380.99C1997.91 380.921 1997.88 380.838 1997.88 380.752V380.752Z" fill="#808080"/>
<path d="M2008 364.057L2007.99 364.143C2007.68 365.797 2006.85 367.32 2005.63 368.507L2000.95 373.055L2001.82 375.582C2002.26 375.345 2002.77 375.27 2003.27 375.372C2003.76 375.474 2004.2 375.746 2004.5 376.137C2004.81 376.529 2004.96 377.014 2004.92 377.503C2004.89 377.992 2004.67 378.453 2004.31 378.799L2003.27 379.809L2003.57 380.682C2004.02 380.446 2004.53 380.372 2005.02 380.475C2005.52 380.579 2005.95 380.851 2006.26 381.243C2006.56 381.634 2006.71 382.119 2006.67 382.608C2006.64 383.096 2006.42 383.556 2006.06 383.902L2005.03 384.906L2006.48 389.107C2006.5 389.177 2006.51 389.252 2006.49 389.324C2006.47 389.396 2006.43 389.462 2006.38 389.515L2004.56 391.279C2004.52 391.323 2004.47 391.357 2004.41 391.378C2004.32 391.406 2004.23 391.408 2004.15 391.383C2004.07 391.359 2003.99 391.309 2003.94 391.24L1997.71 383.14C1997.65 383.063 1997.62 382.969 1997.63 382.873C1997.63 382.778 1997.68 382.688 1997.75 382.62C1997.79 382.58 1997.84 382.548 1997.89 382.528C1997.95 382.508 1998.01 382.5 1998.07 382.504C1998.12 382.508 1998.18 382.525 1998.23 382.552C1998.28 382.58 1998.33 382.617 1998.36 382.663L2004.31 390.395L2005.62 389.126L2000.3 373.684L1995.24 378.599L1996.71 380.513C1996.77 380.59 1996.8 380.685 1996.79 380.78C1996.79 380.876 1996.74 380.966 1996.67 381.034C1996.63 381.074 1996.58 381.105 1996.53 381.125C1996.47 381.145 1996.41 381.153 1996.35 381.149C1996.3 381.145 1996.24 381.129 1996.19 381.101C1996.13 381.074 1996.09 381.036 1996.05 380.99L1994.65 379.168L1988.76 384.893L1989.32 391.273C1989.32 391.331 1989.31 391.389 1989.29 391.444C1989.27 391.498 1989.24 391.548 1989.2 391.589L1987.76 392.986C1987.72 393.023 1987.68 393.052 1987.63 393.072C1987.58 393.092 1987.52 393.103 1987.47 393.103C1987.42 393.103 1987.36 393.092 1987.31 393.072C1987.26 393.052 1987.22 393.023 1987.18 392.986L1982.33 388.273L1981.51 388.688C1981.22 388.842 1980.89 388.901 1980.56 388.856C1980.24 388.81 1979.93 388.663 1979.7 388.436C1979.47 388.21 1979.32 387.915 1979.27 387.598C1979.22 387.28 1979.28 386.957 1979.44 386.675L1979.87 385.883L1975.07 381.223C1974.99 381.148 1974.95 381.047 1974.95 380.941C1974.95 380.836 1974.99 380.734 1975.07 380.66L1976.51 379.262C1976.55 379.222 1976.6 379.19 1976.66 379.17C1976.71 379.15 1976.77 379.142 1976.83 379.147L1983.35 379.636L1989.24 373.911L1976.81 364.89C1976.77 364.855 1976.73 364.812 1976.7 364.762C1976.67 364.711 1976.65 364.656 1976.65 364.599C1976.65 364.589 1976.65 364.58 1976.65 364.57C1976.65 364.465 1976.69 364.363 1976.77 364.289L1978.59 362.52C1978.64 362.467 1978.71 362.431 1978.79 362.414C1978.86 362.397 1978.94 362.4 1979.01 362.424L1983.33 363.83L1984.37 362.826C1984.72 362.48 1985.2 362.27 1985.7 362.235C1986.2 362.2 1986.7 362.343 1987.11 362.637C1987.51 362.931 1987.79 363.357 1987.9 363.836C1988 364.315 1987.93 364.815 1987.68 365.244L1988.58 365.536L1989.62 364.527C1989.98 364.18 1990.45 363.971 1990.95 363.937C1991.46 363.903 1991.96 364.046 1992.36 364.341C1992.76 364.636 1993.04 365.063 1993.15 365.542C1993.25 366.021 1993.18 366.522 1992.93 366.951L1995.53 367.797L2000.22 363.249C2001.44 362.056 2003.02 361.256 2004.72 360.955L2004.8 360.942C2005.23 360.864 2005.69 360.891 2006.11 361.02C2006.54 361.149 2006.93 361.376 2007.24 361.682C2007.56 361.989 2007.79 362.365 2007.92 362.779C2008.06 363.192 2008.08 363.631 2008 364.057V364.057ZM2003.84 381.459L2004.74 384.061L2005.48 383.338C2005.71 383.119 2005.84 382.825 2005.86 382.515C2005.87 382.204 2005.76 381.901 2005.55 381.664C2005.35 381.427 2005.06 381.275 2004.74 381.236C2004.42 381.198 2004.1 381.278 2003.84 381.459V381.459ZM2002.09 376.36L2002.98 378.964L2003.73 378.236C2003.96 378.016 2004.09 377.721 2004.11 377.41C2004.12 377.099 2004.01 376.795 2003.8 376.558C2003.59 376.322 2003.3 376.17 2002.98 376.133C2002.67 376.096 2002.34 376.177 2002.09 376.36L2002.09 376.36ZM2004.02 368.943L2003.87 368.922C2003.69 368.9 2003.52 368.916 2003.35 368.97C2003.18 369.024 2003.03 369.115 2002.91 369.235L2002.04 370.078L2002.45 370.471L2004.02 368.943ZM2001.87 371.034L2001.46 370.642L2000.34 371.73L2000.75 372.123L2001.87 371.034ZM2000.17 372.686L1999.76 372.294L1998.64 373.382L1999.05 373.775L2000.17 372.686ZM1998.47 374.338L1998.06 373.945L1996.94 375.034L1997.34 375.427L1998.47 374.338ZM1996.76 375.99L1996.36 375.598L1995.24 376.686L1995.64 377.079L1996.76 375.99ZM1995.06 377.642L1994.66 377.249L1993.54 378.338L1993.94 378.731L1995.06 377.642ZM1993.36 379.294L1992.96 378.901L1991.84 379.99L1992.24 380.383L1993.36 379.294ZM1991.66 380.946L1991.26 380.553L1990.42 381.369C1990.28 381.505 1990.18 381.675 1990.13 381.861C1990.07 382.047 1990.07 382.243 1990.12 382.429L1990.13 382.439L1991.66 380.946ZM1987.47 392.141L1988.48 391.156L1987.98 385.403L1983.09 387.887L1987.47 392.141ZM1975.94 380.941L1980.27 385.142L1982.82 380.395L1976.96 379.955L1975.94 380.941ZM1985.89 378.295C1986.08 378.339 1986.27 378.335 1986.46 378.284C1986.65 378.232 1986.82 378.136 1986.95 378.003L1987.79 377.187L1987.41 376.815L1985.89 378.295ZM1987.99 376.252L1988.37 376.624L1989.49 375.535L1989.11 375.163L1987.99 376.252ZM1989.69 374.6L1990.07 374.972L1991.19 373.883L1990.81 373.511L1989.69 374.6ZM1986.75 363.389C1986.51 363.158 1986.19 363.028 1985.85 363.028C1985.51 363.028 1985.19 363.158 1984.95 363.389L1984.2 364.112L1986.88 364.984C1987.06 364.745 1987.14 364.455 1987.12 364.163C1987.09 363.871 1986.96 363.597 1986.75 363.389V363.389ZM1992.37 365.965C1992.37 365.72 1992.3 365.481 1992.16 365.278C1992.02 365.074 1991.82 364.916 1991.59 364.822C1991.36 364.728 1991.1 364.704 1990.85 364.752C1990.61 364.799 1990.38 364.917 1990.2 365.09L1989.45 365.819L1992.13 366.69C1992.29 366.48 1992.37 366.226 1992.37 365.965L1992.37 365.965ZM1978.99 363.258L1977.68 364.527L1989.83 373.341L1994.89 368.426L1978.99 363.258ZM1991.77 373.32L1992.9 372.232L1992.51 371.859L1991.39 372.948L1991.77 373.32ZM1993.48 371.668L1994.6 370.58L1994.21 370.207L1993.09 371.296L1993.48 371.668ZM1995.18 370.016L1996.3 368.928L1995.91 368.555L1994.79 369.644L1995.18 370.016ZM1996.49 367.992L1996.88 368.364L1998 367.276L1997.61 366.903L1996.49 367.992ZM1998.19 366.34L1998.58 366.712L1999.44 365.869C1999.57 365.749 1999.66 365.602 1999.72 365.441C1999.77 365.279 1999.79 365.108 1999.77 364.939L1999.75 364.827L1998.19 366.34ZM2000.8 363.812L2000.48 364.12L2000.58 364.831C2000.62 365.121 2000.59 365.417 2000.49 365.695C2000.4 365.972 2000.24 366.225 2000.03 366.433L1987.53 378.567C1987.29 378.801 1986.99 378.97 1986.66 379.056C1986.33 379.143 1985.98 379.144 1985.65 379.06L1985.21 378.948L1983.77 380.354L1980.17 387.049L1980.16 387.058C1980.09 387.188 1980.06 387.338 1980.08 387.486C1980.1 387.633 1980.17 387.769 1980.28 387.875C1980.39 387.98 1980.53 388.048 1980.68 388.068C1980.83 388.089 1980.98 388.061 1981.12 387.989C1981.12 387.987 1981.13 387.985 1981.13 387.984L1988.02 384.485L1989.46 383.091L1989.33 382.633C1989.29 382.476 1989.27 382.314 1989.27 382.152C1989.27 381.647 1989.47 381.163 1989.84 380.805L2002.33 368.672C2002.54 368.465 2002.8 368.309 2003.09 368.216C2003.38 368.122 2003.68 368.094 2003.98 368.133L2004.75 368.236L2005.05 367.944C2005.68 367.328 2006.2 366.61 2006.58 365.821L2006.01 366.097C2005.55 366.323 2005.02 366.401 2004.51 366.32C2004 366.24 2003.53 366.005 2003.16 365.648C2002.79 365.292 2002.55 364.832 2002.47 364.334C2002.38 363.837 2002.46 363.326 2002.7 362.875L2002.98 362.325C2002.17 362.693 2001.43 363.197 2000.8 363.812L2000.8 363.812ZM2004.94 361.726L2004.87 361.739C2004.61 361.785 2004.36 361.845 2004.11 361.915L2003.43 363.232C2003.28 363.533 2003.22 363.874 2003.28 364.206C2003.33 364.538 2003.49 364.845 2003.74 365.083C2003.99 365.321 2004.3 365.478 2004.64 365.532C2004.98 365.586 2005.34 365.534 2005.65 365.384L2007 364.724C2007.07 364.486 2007.13 364.245 2007.18 363.999L2007.2 363.913C2007.25 363.614 2007.23 363.306 2007.14 363.015C2007.05 362.725 2006.88 362.461 2006.66 362.246C2006.44 362.03 2006.17 361.871 2005.87 361.78C2005.57 361.69 2005.25 361.671 2004.94 361.726L2004.94 361.726Z" fill="#808080"/>
</g>
<circle cx="1510.5" cy="697.5" r="269" stroke="#808080" stroke-dasharray="6.8 6.8"/>
<g filter="url(#filter2_d)">
<circle cx="1282" cy="837" r="19" fill="#7AACFF"/>
<circle cx="1282" cy="837" r="14" fill="#1467FF"/>
<circle cx="1282" cy="837" r="9" fill="white"/>
</g>
<path d="M1285.69 841.471C1285.81 841.467 1285.92 841.419 1286.01 841.336L1287.57 839.828C1287.65 839.745 1287.69 839.635 1287.69 839.523V832.441C1287.69 832.207 1287.52 832 1287.27 832H1279C1278.88 832.003 1278.76 832.051 1278.68 832.133L1277.12 833.639C1277.08 833.68 1277.05 833.728 1277.03 833.78C1277.01 833.833 1277 833.888 1277 833.944V841.025C1277 841.259 1277.17 841.471 1277.42 841.471H1285.69ZM1282.2 840.623H1280.93V839.023L1282.2 839.612V840.623ZM1286.8 839.347L1286.13 840.001V834.119L1286.8 833.465V839.347ZM1283.32 832.848H1286.19L1285.51 833.484H1282.63L1283.32 832.848ZM1279.18 832.848H1282.06L1281.37 833.484H1278.49L1279.18 832.848ZM1282.27 834.333V834.898H1280.79V834.333H1282.27ZM1277.89 834.333H1279.89V835.33C1279.89 835.564 1280.13 835.746 1280.38 835.746H1282.74C1282.8 835.746 1282.86 835.736 1282.91 835.715C1282.96 835.694 1283.01 835.663 1283.05 835.624C1283.09 835.585 1283.12 835.538 1283.14 835.488C1283.16 835.437 1283.16 835.384 1283.16 835.33V834.333H1285.24V840.623H1283.09V839.342C1283.09 839.263 1283.07 839.184 1283.02 839.116C1282.98 839.048 1282.92 838.993 1282.84 838.958L1280.64 837.973C1280.57 837.942 1280.5 837.929 1280.43 837.934C1280.36 837.938 1280.29 837.961 1280.23 837.999C1280.17 838.038 1280.12 838.092 1280.09 838.155C1280.05 838.217 1280.04 838.287 1280.04 838.357V840.623H1277.89V834.333Z" fill="#1467FF"/>
<g filter="url(#filter3_d)">
<circle cx="1707" cy="514" r="19" fill="#7AACFF"/>
<circle cx="1707" cy="514" r="14" fill="#1467FF"/>
<circle cx="1707" cy="514" r="9" fill="white"/>
</g>
<path d="M1711.74 510.167L1704.95 515.602L1702.38 512.354C1702.25 512.183 1702.05 512.078 1701.85 512.061C1701.64 512.044 1701.43 512.116 1701.28 512.262C1701.12 512.409 1701.02 512.617 1701 512.841C1700.99 513.065 1701.05 513.288 1701.19 513.46L1704.23 517.311C1704.36 517.475 1704.54 517.58 1704.74 517.604C1704.94 517.628 1705.13 517.571 1705.3 517.443L1712.68 511.536C1712.85 511.402 1712.96 511.201 1712.99 510.978C1713.02 510.754 1712.97 510.527 1712.85 510.345C1712.72 510.164 1712.54 510.043 1712.33 510.009C1712.12 509.976 1711.91 510.033 1711.74 510.167V510.167Z" fill="#1467FF"/>
<defs>
<filter id="filter0_d" x="465" y="892" width="66" height="66" filterUnits="userSpaceOnUse" color-interpolation-filters="sRGB">
<feFlood flood-opacity="0" result="BackgroundImageFix"/>
<feColorMatrix in="SourceAlpha" type="matrix" values="0 0 0 0 0 0 0 0 0 0 0 0 0 0 0 0 0 0 127 0"/>
<feOffset dy="14"/>
<feGaussianBlur stdDeviation="7"/>
<feColorMatrix type="matrix" values="0 0 0 0 0.080303 0 0 0 0 0.402479 0 0 0 0 1 0 0 0 0.28 0"/>
<feBlend mode="normal" in2="BackgroundImageFix" result="effect1_dropShadow"/>
<feBlend mode="normal" in="SourceGraphic" in2="effect1_dropShadow" result="shape"/>
</filter>
<filter id="filter1_d" x="1958" y="404" width="66" height="66" filterUnits="userSpaceOnUse" color-interpolation-filters="sRGB">
<feFlood flood-opacity="0" result="BackgroundImageFix"/>
<feColorMatrix in="SourceAlpha" type="matrix" values="0 0 0 0 0 0 0 0 0 0 0 0 0 0 0 0 0 0 127 0"/>
<feOffset dy="14"/>
<feGaussianBlur stdDeviation="7"/>
<feColorMatrix type="matrix" values="0 0 0 0 0.080303 0 0 0 0 0.402479 0 0 0 0 1 0 0 0 0.28 0"/>
<feBlend mode="normal" in2="BackgroundImageFix" result="effect1_dropShadow"/>
<feBlend mode="normal" in="SourceGraphic" in2="effect1_dropShadow" result="shape"/>
</filter>
<filter id="filter2_d" x="1249" y="818" width="66" height="66" filterUnits="userSpaceOnUse" color-interpolation-filters="sRGB">
<feFlood flood-opacity="0" result="BackgroundImageFix"/>
<feColorMatrix in="SourceAlpha" type="matrix" values="0 0 0 0 0 0 0 0 0 0 0 0 0 0 0 0 0 0 127 0"/>
<feOffset dy="14"/>
<feGaussianBlur stdDeviation="7"/>
<feColorMatrix type="matrix" values="0 0 0 0 0.080303 0 0 0 0 0.402479 0 0 0 0 1 0 0 0 0.28 0"/>
<feBlend mode="normal" in2="BackgroundImageFix" result="effect1_dropShadow"/>
<feBlend mode="normal" in="SourceGraphic" in2="effect1_dropShadow" result="shape"/>
</filter>
<filter id="filter3_d" x="1674" y="495" width="66" height="66" filterUnits="userSpaceOnUse" color-interpolation-filters="sRGB">
<feFlood flood-opacity="0" result="BackgroundImageFix"/>
<feColorMatrix in="SourceAlpha" type="matrix" values="0 0 0 0 0 0 0 0 0 0 0 0 0 0 0 0 0 0 127 0"/>
<feOffset dy="14"/>
<feGaussianBlur stdDeviation="7"/>
<feColorMatrix type="matrix" values="0 0 0 0 0.080303 0 0 0 0 0.402479 0 0 0 0 1 0 0 0 0.28 0"/>
<feBlend mode="normal" in2="BackgroundImageFix" result="effect1_dropShadow"/>
<feBlend mode="normal" in="SourceGraphic" in2="effect1_dropShadow" result="shape"/>
</filter>
<linearGradient id="paint0_linear" x1="912.502" y1="913" x2="-4.49883" y2="180.5" gradientUnits="userSpaceOnUse">
<stop stop-color="#808080"/>
<stop offset="0.764737" stop-opacity="0"/>
</linearGradient>
<linearGradient id="paint1_linear" x1="1600.89" y1="521.095" x2="2320.89" y2="250.595" gradientUnits="userSpaceOnUse">
<stop offset="0.231057" stop-color="#808080"/>
<stop offset="0.855301" stop-opacity="0"/>
</linearGradient>
<clipPath id="clip0">
<rect width="34" height="35" fill="white" transform="matrix(-4.37114e-08 -1 -1 4.37114e-08 2009 394)"/>
</clipPath>
</defs>
</svg>
