<svg width="40" height="40" xmlns="http://www.w3.org/2000/svg"><g fill="none" fill-rule="evenodd"><path d="M18.0979 6.8541c.5987-1.8426216 3.2055-1.8426206 3.8042 0l2.1392 6.58359c.2677.82405 1.0356 1.38197 1.9021 1.38197h6.9224c1.9374 0 2.743 2.47924 1.1755 3.61804l-5.6003 4.0689c-.701.5093-.9943 1.412-.7265 2.236l2.1391 6.5836c.5987 1.8427-1.5103 3.3749-3.0777 2.2361l-5.6003-4.0689c-.701-.5093-1.6502-.5093-2.3512 0l-5.60031 4.0689c-1.56743 1.1388-3.67639-.3934-3.07768-2.2361l2.13914-6.5836c.26775-.824-.02557-1.7267-.72655-2.236l-5.600335-4.0689c-1.567427-1.1388-.761875-3.61804 1.175575-3.61804h6.9224c.86645 0 1.63436-.55792 1.90206-1.38197l2.1392-6.58359z" fill="#FFE200" fill-rule="nonzero"/><path d="M0 0h40v40H0z"/></g></svg>
