<svg width="12" height="20" viewBox="0 0 12 20" fill="none" xmlns="http://www.w3.org/2000/svg">
<path d="M11.58 12.76C11.58 9.90002 9.72 9.02002 5.8 8.18002C4.42 7.88002 3.78 7.80002 3.78 7.14002C3.78 6.54002 4.24 5.92002 5.76 5.92002C7.36 5.92002 7.82 6.56002 8.02 7.38002H11.46C11.26 5.36002 10.18 3.46002 7.5 2.90002V0.52002H4.12V2.94002C2.08 3.42002 0.36 4.86002 0.36 7.30002C0.36 10.2 2.7 11.04 4.98 11.52C7.32 12.02 8.16 12.08 8.16 12.9C8.16 13.64 7.54 14.08 6.16 14.08C4.38 14.08 3.76 13.54 3.44 12.38H0C0.24 14.34 1.38 16.4 4.18 17.04V19.48H7.56V17.12C9.52 16.76 11.58 15.52 11.58 12.76Z" fill="#282828"/>
</svg>
